<svg id="Layer_1" data-name="Layer 1" xmlns="http://www.w3.org/2000/svg" viewBox="0 0 925.49 327.44"><defs><style>.cls-1{fill:#fff;}</style></defs><path d="M201.41,379.13l-1.32,1.42,1.63,2.32c-2.3,3.16-2.07,6.71-1.37,10.22a13.17,13.17,0,0,1-1.69,9.71,20.89,20.89,0,0,0-3.06,11.71c.07,2.45-.28,4.92-.32,7.38a15.74,15.74,0,0,0,.32,4.62c1.69,5.6,3.55,11.14,5.41,16.68a12,12,0,0,0,4.41,6.44,6,6,0,0,1,1.54,1.9q4.17,7.1,8.27,14.22c1.41,2.46,2.74,4.95,4.11,7.43,2.62,4.78,6.27,8.75,9.82,12.82,2.39,2.75,4.64,5.64,7.11,8.32a39.13,39.13,0,0,0,4.78,4.1,10.21,10.21,0,0,0,2.42,1.23c2.61,1.06,5.2,2.2,7.87,3.08,2.94,1,5.94,1.78,9,2.53,2.65.66,5.34,1.22,8,1.7a26,26,0,0,0,4.88.48,47.88,47.88,0,0,0,7.39-.49c3-.51,5.78.35,8.65.75a37.62,37.62,0,0,0,6.53.39,4.26,4.26,0,0,0,2.88-1.29c3.82-4.71,8.59-3.89,13.27-2.17,5.9,2.16,11.78,3.13,18,1.81,3.56-.75,6.26-2.9,9-5a2.82,2.82,0,0,0,.7-1.2l4.32-2.34a5.33,5.33,0,0,1,4.35-.41c-.07.73-.13,1.42-.21,2.27,2.73.74,3,3,2.78,5.21a80.3,80.3,0,0,1-1.71,8,8.06,8.06,0,0,0-.51,2.63,17.08,17.08,0,0,1-.5,6,16.25,16.25,0,0,0-.1,3.28c0,3.74,0,7.48-.05,11.22,0,2-.13,2,1.7,3.44-.72,1.78-.67,4-2.62,5.17a.32.32,0,0,0-.13.24c-.14,3.55-3.24,4.12-5.55,5.34-1.76.93-3.23.61-4.44-1.22a26.61,26.61,0,0,0-5.12-5.63,4.44,4.44,0,0,0-3.82-.58c-3.86,1.67-7.92.9-11.84,1.5a19.11,19.11,0,0,0-5.52,1.37,14.67,14.67,0,0,1-12.46.48c-1.15-.45-2.29-1-3.41-.3-2.31,1.36-4.59.5-6.54-.41a13.23,13.23,0,0,0-6-1.38c-5.2.17-10.39.6-15.58.89-1,.06-2,0-3,0a87.88,87.88,0,0,0-10.13-.1c-2.45.25-4.83.88-7.3.29-2.21-.53-4.44-1-6.65-1.57-.71-.17-1.37-.53-2.07-.71a14.93,14.93,0,0,1-6.18-2.64c-1.27-1-3.2-1.22-4.75-2a16.21,16.21,0,0,0-5.37-1.84c-1.42-.14-2.72-1.33-4.08-2a13.37,13.37,0,0,0-3.33-1.68c-3-.61-5.34-2.32-7.83-3.84a2.89,2.89,0,0,1-1.47-2.49c-.05-1.62-.26-3.26-.18-4.88.05-1.15-.66-1.6-1.33-2.21-2.92-2.61-5.93-5.14-8.72-7.89-4-4-7.78-8.21-10.36-13.32a7.5,7.5,0,0,0-3.93-3.59,59.65,59.65,0,0,1-7-3.73,6,6,0,0,1-1.71-2.34c-.57-1-.1-1.8.77-2.59.49-.45.27-1.68.76-2.16,2-2,.69-3.7-.21-5.57-1.84-3.79-3.75-7.56-5.27-11.47-2.75-7.07-5.23-14.25-7.83-21.38-1.38-3.78-2.84-7.52-4.11-11.33-1.8-5.39-3.23-10.86-3.13-16.63a8.61,8.61,0,0,0-.74-3.73,11.53,11.53,0,0,1-.94-5.06,10.66,10.66,0,0,0-.4-3,13.54,13.54,0,0,1,1-9.89c1.28-2.65,1.33-5.28,1.39-8,.15-6.39,0-12.79.38-19.18.14-2.65.61-5.23-.27-7.84a3.78,3.78,0,0,1,.16-1.57c.13-.88.28-1.74.41-2.62,0-.27-.07-.61,0-.8,1.75-2.73,1.21-6,2.14-8.9,1.14-3.54,2.37-7.07,3.74-10.53,1.82-4.57,4.17-8.9,5.46-13.7a19.54,19.54,0,0,1,4.21-7.89c2.62-3,4.61-6.57,7-9.82,1.44-2,3-3.9,4.59-5.78s3.24-3.71,4.9-5.52c1.1-1.19,2.23-2.34,3.43-3.42,2.14-1.94,3.83-4.35,6.48-5.76,1.07-.57,1.78-1.79,2.74-2.62s1.91-1.36,2.83-2.09c2.66-2.08,5.29-4.2,7.95-6.29a16.81,16.81,0,0,1,1.61-1c2.25-1.41,4.45-2.83,5.69-5.36a2.87,2.87,0,0,1,1.89-1.39c3-.4,4.43-3,6.71-4.4.45-2.53,2.79-2.83,4.51-3.89,3.42-2.09,6.84-4.19,10.16-6.42a7.09,7.09,0,0,0,2.21-2.64,5.4,5.4,0,0,1,5.51-3.23,3.73,3.73,0,0,0,3.37-1.4,2.08,2.08,0,0,1,1.66-.66c2.12.44,3.95-.47,5.86-1,6.91-2.06,13.55-5,20.68-6.4a23.49,23.49,0,0,1,6.8-.38,59.29,59.29,0,0,0,9.32.32c5.69-.33,11.06,1.17,16.48,2.45,3.81.91,7.52,2.13,11.52,2.31,3.2.14,6.15,1.6,8.95,3.25a15.75,15.75,0,0,0,4.27,1.67c2,.49,3.6,1.07,4.78,3.12,1.49,2.57,3.07,2.46,4.8.64a67,67,0,0,1,7.28-6.5,13.79,13.79,0,0,1,4.35-2.18c1.52-.47,2.14.18,2.38,1.77.19,1.25.44,2.49.71,3.73.5,2.35.34,4.49-1.35,6.42a44.06,44.06,0,0,0-2.86,4c-1.9,2.72-1.75,5.91-1.89,9-.2,4.65-.17,9.31-.27,14a7.61,7.61,0,0,0,1.21,4.38,27.42,27.42,0,0,1,2.47,5.78,3.27,3.27,0,0,1-.14,2.64c-1.29,1.5-.84,3.1-.68,4.68.3,2.91.18,5.72-1.9,8-2.34,2.59-5.11,4.38-8.83,4-4.21-.44-8.35-1.12-12.06-3.34-1.88-1.13-3.8-2.19-5.66-3.35a5.14,5.14,0,0,1-2.79-5,38.19,38.19,0,0,0-.09-4.66,10.1,10.1,0,0,0-8.11-9.57c-3.93-.83-7.85-1.74-11.81-2.42a6.3,6.3,0,0,0-3.4.53c-2.84,1.26-5.57,2.77-8.39,4.08a44.2,44.2,0,0,1-12.36,3.48c-1.72.24-3.44.47-5.14.79a2.43,2.43,0,0,0-1.41.72c-1.45,1.85-3.21,3.48-3.56,6-.22,1.59-.57,3.31-2.45,4a.76.76,0,0,0-.37.4c-1.24,2.63-2.47,5.27-3.71,7.9a6.18,6.18,0,0,1-1,1.91c-4.53,4.33-9.66,7.49-16.15,7.81-.55,0-1.08.18-1.63.22-4,.23-6.81,2.28-9.05,5.45a40.85,40.85,0,0,1-5.06,6.43,24.58,24.58,0,0,1-6.2,3.92c-3.43,1.66-7,3-10.51,4.57a33.24,33.24,0,0,0-5,2.75,7.92,7.92,0,0,0-3.29,4.24c-.55,1.83-1.29,3.61-2,5.38A89,89,0,0,0,200,365.06a28.31,28.31,0,0,0-.86,7.85C199.28,374.87,200.5,376.76,201.41,379.13ZM336,253.72c.42,0,.65.08.77,0,.58-.43,1.16-.87,1.7-1.36,1.41-1.28,1.5-2.38.15-3.64a14.92,14.92,0,0,0-2.62-1.5Zm16.72,31.12-.44.11c.17,1.46.33,2.93.54,4.39.1.72.27,1.6,1.25,1.38s1.18-1.09.77-1.93C354.19,287.44,353.43,286.15,352.72,284.84Zm-116,35.8c2.07-1,2.38-3,3.59-4.57-2.27.31-2.36,2.45-3.65,3.38C236.57,319.55,236.73,320.06,236.77,320.64ZM264.92,509l0-.43-1.78-.36a1.27,1.27,0,0,0,.88.94A2.2,2.2,0,0,0,264.92,509ZM169.47,322l-.5-.19-.51,1.35.35.15Z" transform="translate(-149.66 -232.44)"/><path d="M488.56,357.74c-.1-.81-.18-1.47-.3-2.42.7.29,1.21.35,1.48.64,1.18,1.24,2.49,1.17,4,.78,2.58-.66,3.13,0,2.72,2.59-.48,3.17-.95,6.34-1.36,9.51a3,3,0,0,0,.28,2.06c1.2,1.4.83,2.64.06,4-1.11,1.95-1,2.27.54,3.86a6.88,6.88,0,0,0-.85,2.28c0,2.24.14,2.23-2.06,2.29-.27,0-.54,0-.64.05-.95,1.12-1.82,2.13-2.8,3.27-2.77-1.74-5.51-2.87-8.78-2.05a8.4,8.4,0,0,0,.15,1.93c.61,1.8,1.41,3.55,2,5.36.46,1.47.68,3,1,4.52a5.31,5.31,0,0,0,.15,1.07c2.11,5,2.53,10.28,3.31,15.51.61,4.06,1.3,8.13,1.6,12.22s-.11,8.23.28,12.31c.43,4.6.4,9.33,2.29,13.68.74,1.73.85,3.73,2.48,5.12.53.45.5,1.7.5,2.58a12.55,12.55,0,0,0,.58,4.27c.56,1.66.38,3.58.51,5.39.1,1.45.05,2.92.27,4.35q2,13.27,4.18,26.55c.31,1.95.32,4,2.33,5.31.82.54.78,1.68.13,2.71-1.28,2-1.11,2.22.52,3.87a4.47,4.47,0,0,1,1.23,2.55c.28,3.65.34,7.3.53,11a6.76,6.76,0,0,0,.39,2.68c1,2,.88,4,1,6.1.11,1.6.06,3.3,1.4,4.58a1.78,1.78,0,0,1,.47,1.22c-.16,3.43,1.52,6.29,2.82,9.53l-1.42,1.75,2.9,1.61c-1,1.89-2.55,2.61-4.48,1.91a6.33,6.33,0,0,0-4.23-.14c-1.23.36-2.67-.05-4,0-1.06,0-2.16,0-2.8,1.3a1.88,1.88,0,0,1-1.8.46c-1.13-.82-2.26-.54-3.42-.4l-.82.09c-4,.39-4.73-.22-4.87-4.13-.09-2.36.16-4.74,0-7.09a18,18,0,0,0-1.18-5.05c-.27-.71-1.34-1.12-2.29-1.85.17-1.44-.74-2.7-1.65-4.09-1.32-2-2.62-4.19-2.8-6.77A5.41,5.41,0,0,0,477,523.9c-.37,1.23-.74,2.47-1.11,3.69a4.62,4.62,0,0,1,.83-5.38c1.36-1.53.46-3.28-.22-4.31-1.09-1.68-.71-3.25-.88-4.94-.34-3.25-1.11-6.47-1.72-9.69-.37-2-.8-3.93-1.17-5.89-1.22-6.46-2.38-12.94-3.69-19.38a12,12,0,0,0-2.2-4.59c-1.06-1.48-1.39-3.54-1.83-5.39-.35-1.5-.08-3.18-.6-4.59-1.09-2.92-.94-6-1.54-9a26,26,0,0,1-.24-3.75,4,4,0,0,0-.07-1.3c-2-4.7-2.28-9.76-3.22-14.68-1.85-9.6-3.61-19.23-5.39-28.85a26.15,26.15,0,0,1-.45-3.54c-.31-6.15-1.75-12.11-2.87-18.13-.48-2.58-1.93-3.75-4.42-4.06-2.9-.36-5.78-.88-8.68-1.25a10.56,10.56,0,0,0-7.33,1.67c-.74.48-1.23.88-1.86-.32-.31-.58-1.24.11-1.26.81-.06,1.9-1.24,1.95-2.74,2.24a48.36,48.36,0,0,0-6.43,2.13l1.89,3.06a6.9,6.9,0,0,0-4.8,6.14c-.18,2.19-.11,4.41-.45,6.57-1.06,6.78-2.28,13.53-3.4,20.3-1.27,7.75-2.45,15.52-3.76,23.27-.64,3.77-1.67,7.49-2.18,11.28-.8,5.92-2.61,11.58-3.94,17.36a32.21,32.21,0,0,0-.61,9.25c.31,4.44-1,8.51-2.16,12.62-1.4,5-3.39,9.85-4.75,14.87-1,3.76-2.18,7.52-2,11.57.09,2.23-.73,4.48-1,6.73a70.44,70.44,0,0,0-1,9.22,10.07,10.07,0,0,1-1.83,6.16,28.53,28.53,0,0,0-3.73,8.6l3.78.64c-.93.6-1.4,1.17-1.83,1.14-4.24-.29-8.06,1-11.78,2.86-.14.08-.35,0-.7,0l-1-1.79c-.9.27-1.67.55-2.46.72-.6.13-1.4.38-1.84.12-2.41-1.43-5-.9-7.51-.79-2.69.12-2.95-.12-2.62-2.86a3.62,3.62,0,0,0,0-1.09,8.67,8.67,0,0,1,1.49-6.47,6.27,6.27,0,0,0,.8-2.32c.58-3,1.11-5.93,1.64-8.9.08-.44.3-1,.15-1.34-1.27-3.19.54-5.89,1.4-8.69a134.68,134.68,0,0,0,5.57-29,42.81,42.81,0,0,1,2.87-12.51c1.17-2.92,1.42-6.21,2-9.35.75-3.94,1.45-7.89,2.16-11.84.83-4.58,1.31-9.26,2.58-13.71s1.37-9,3.37-13.23c1-2.16,1.11-4.76,1.56-7.18a1.65,1.65,0,0,0-.22-1.29c-1.38-1.42-.62-2.78-.23-4.32.89-3.44,1.56-6.94,2.24-10.42q1.76-9,3.38-18.06a34.46,34.46,0,0,0,.5-4.64c.26-5.7,1.76-11.18,2.82-16.74.89-4.67,1.59-9.38,2.15-14.1.87-7.34,1.77-14.7,2.24-22.07.67-10.39,3-20.54,3.9-30.89.55-6.17,2.12-12.18,3.42-18.23,1.49-7,3.25-13.89,3.64-21.06.09-1.78,1.24-3.55-.34-5.4,1.8-1.16,2-2.61,1.3-4.36a4.43,4.43,0,0,1,.71-4.63c1-1.3.89-1.39.28-2.9a40.26,40.26,0,0,0,4.15-4c2.71-3.44,6.55-4.17,10.47-4.45,4.1-.3,8.22-.18,12.33-.21a2.51,2.51,0,0,0,2.58-1.65c.21-.5.42-1,.62-1.45,3.31-.47,3-.8,5.29,2.74.32-1.72.5-3.11.86-4.46.48-1.8,1.18-2.15,2.69-1.52.12.05.17.29.08.14-.84,1.78-1.66,3.32-2.3,4.94-.47,1.19.11,2,1.37,2.1s2.73.07,4.1.12a6.68,6.68,0,0,1,1.85.16c4.09,1.36,4.26,1.68,4.58,6.19a10.09,10.09,0,0,0,.83,4c.88,1.66.79,3.32.89,5.05.07,1.24.39,2.47.54,3.72a34.81,34.81,0,0,1,.41,4.55c0,3.14-.36,6.28-.39,9.42,0,2.08.29,4.17.43,6.25.18,2.64.19,5.3.55,7.92a44,44,0,0,0,2.74,10,106.5,106.5,0,0,1,4.28,12.86,40.74,40.74,0,0,1,1.18,10c0,3.52-.87,7-1.12,10.54a26.69,26.69,0,0,0,.43,5.41c.26,2,.63,4,1,5.94a6.66,6.66,0,0,0,.71,1.71c.19.4.77.88.68,1.12-.88,2.24,1.13,3.6,1.55,5.41s.79,3.95,1.23,5.91,1.35,2.4,3.2,2a20.43,20.43,0,0,1,2.34-.74,10.92,10.92,0,0,1,3.74,0C485.64,358,485.61,358.13,488.56,357.74Zm-66-6.1c2.62-.29,4.68-.57,6.75-.74s4,0,5.91-.87c1.66-.76,3.09.08,3.95,1.75.29.56.61,1.1.84,1.51h4c-.08-1.85-.06-3.45-.24-5-.4-3.44-1-6.86-1.32-10.3-.16-1.53,0-3.1,0-4.64a75.87,75.87,0,0,0-.12-9.78,136,136,0,0,0-2.67-14c-1-4.1-1.32-8.46-4.2-12l-2.05.68c.78-2.17,1.46-4.09,2.21-6.18h-2.49c.48-2.92,2.54-5.69.5-8.76-.75,1.1-1.55,1.93-1.17,3.32.13.44-.18,1-.33,1.51a26.23,26.23,0,0,0-.88,3.08c-.65,4.34-1,8.74-1.92,13a39.61,39.61,0,0,0-.89,8.66c0,3.25.21,6.6-1.9,9.68,1.3,1.21,1.14,2.64.56,4.22a17.43,17.43,0,0,0-.61,3.5c-.25,1.62-.36,3.26-.71,4.86-1,4.71-2.19,9.4-3.23,14.11A11.33,11.33,0,0,0,422.6,351.64ZM490.45,364c.7,1.75.7,1.75,2.29,2.09.38-1.77.81-3.54,1.09-5.32.06-.39-.44-1.23-.71-1.24-1.61-.05-3.31-.25-5,1l4.29,1.7ZM421.9,246.78c3-1.5,3.11-1.67,2.59-4.12-2.73-.25-2.73-.25-6,1.86Zm67.31,299.8c-.71,1.85-.59,3.46.44,6.76l3-.72A9.84,9.84,0,0,0,489.21,546.58ZM431.37,278.3c-1.6-.94-3-1.2-4.37,0a2.18,2.18,0,0,0,0,2.73c.62.64,1.59.51,2.33-.34ZM477.6,505.07l-.63.27c.71,3,1.41,6,2.25,9.65a5.92,5.92,0,0,0,.36-1.17c-.26-2.18-.48-4.36-.87-6.52A8.93,8.93,0,0,0,477.6,505.07ZM427,301.41c-2.42,1.32-2.68,2-2,4.84C427.67,305.42,426.18,303.05,427,301.41Zm-16.5,107.51c1.33-2.43-1-4.69.42-6.92-1.51.28-1.51.28-2.35,1.28C410.84,404.51,408.8,407.21,410.52,408.92Zm96.54,140.81c-2.17-.82-4.13.21-6.12.31C504.85,551.63,505.64,551.59,507.06,549.73ZM431.93,355.92c-3.09-.66-4-.4-5.2,1.54C428.54,357.12,430.41,357.93,431.93,355.92ZM457.08,277a1.93,1.93,0,0,0-1.28,2.7c.28.87-.35,2.52,1.77,2.67C457.4,280.51,457.25,278.86,457.08,277ZM439.42,291.8c-1.21,2.87-1,4.51.46,6.39C439.71,295.87,439.57,293.84,439.42,291.8Zm37.32,212.1c1.7-1.86.31-3.09.39-4.32,0-.16-.79-.37-1.76-.79ZM454.49,271.06c-.17,1.47-.32,2.81.68,4.12C456.35,272.67,456.29,272.32,454.49,271.06Zm49,275.55,1.77,1.31c.29-.49.83-1,.79-1.46s-.68-.84-1.06-1.26ZM410,413.32c-.88-1.63-1.84-1.4-3-.85C408.05,413.63,408.05,413.63,410,413.32ZM428.2,243.69c2.1,0,2.1,0,2.66-1.25C429.56,242,428.8,242.58,428.2,243.69Zm23.24,134.64a2.17,2.17,0,0,0,2.92.57C453.59,377.69,452.75,377.84,451.44,378.33Zm-27.33-20.55,0-.66c-.83-.45-1.62-.48-2.79.66Zm57,3.14c-1.13-.68-2.24-1.21-3.07.42Zm-66.42,17.66c-.11-.27-.22-.55-.32-.82a11.11,11.11,0,0,0-1.4.64,5.08,5.08,0,0,0,.33.83Zm17.73-131.74c-.51-.25-.84-.56-1.05-.49a3.53,3.53,0,0,0-.91.75c.3.23.62.67.89.65S431.9,247.27,432.38,246.84ZM398.69,348.5l-.61,0-.12,1.9.39,0C398.46,349.78,398.57,349.14,398.69,348.5Zm49.72,27.56-.05-.39-2.6.15.09.69ZM495.73,489.4c.65-1.22.65-1.22-.57-1.91C495.38,488.21,495.53,488.72,495.73,489.4ZM470.57,358.2c-.31.52-.61.79-.58,1s.35.53.54.79c.22-.23.59-.44.62-.69S470.88,358.76,470.57,358.2Zm-59.08,41.27a9.54,9.54,0,0,0-1.2-.88,2.21,2.21,0,0,0-.59.78c0,.09.34.48.52.47A4.84,4.84,0,0,0,411.49,399.47Zm.82-12.62-.33-.23-1,1.5.32.23ZM381.09,546l-.25.64,1.4.34.14-.52Zm47-257,.61.24c.13-.46.26-.92.35-1.39a1.92,1.92,0,0,0-.42-.16C428.43,288,428.25,288.47,428.08,288.91Zm24.42-44.77a6.52,6.52,0,0,0-1.54-.44c-.16,0-.3.34-.45.53a2.87,2.87,0,0,0,.84.42C451.56,244.68,451.81,244.46,452.5,244.14ZM407.93,307.7c-.43-.14-.69-.32-.94-.29s-.5.3-.49.45.27.41.42.62Zm25.14,44.5c-.08-.23-.12-.51-.18-.51a3.71,3.71,0,0,0-.73.08c.06.2.1.55.18.57A2.19,2.19,0,0,0,433.07,352.2Zm42.08,132.56-.27-.6-1.1.42c.1.21.26.61.31.6A7.3,7.3,0,0,0,475.15,484.76ZM408.31,284c-.17.28-.41.49-.39.67s.31.35.48.52a5,5,0,0,0,.5-.73C408.92,284.43,408.56,284.21,408.31,284Zm94.75,250.16a3.58,3.58,0,0,0-1.06-.24c-.17,0-.3.33-.45.51a2.62,2.62,0,0,0,.81.36C502.52,534.82,502.7,534.52,503.06,534.18ZM475.21,494.4l-.37.14.36.95c.12-.09.37-.21.35-.25A6.71,6.71,0,0,0,475.21,494.4ZM454.7,390.24c.2-.28.49-.49.46-.67s-.32-.37-.5-.56c-.16.17-.46.35-.44.5S454.48,389.93,454.7,390.24Zm12.19,75.81-.22-.44c-.13.09-.38.21-.37.24a3.52,3.52,0,0,0,.31.57Zm-6.47-54.44-.55-.36c-.07.15-.23.35-.19.43a2.58,2.58,0,0,0,.5.49Z" transform="translate(-149.66 -232.44)"/><path d="M962.43,349.89c1.75,2.91,1.64,3.61-.45,6.1a4.54,4.54,0,0,0-1,2.2c-1,7.25-2,14.49-2.74,21.77-.46,4.7-.5,9.46-.57,14.19,0,2,.46,4.07.51,6.11a36.29,36.29,0,0,1-.48,4.26c-.13,1.17-.67,2.57-.21,3.47.68,1.35-.21,2.28-.18,3.38,0,1.3.7,2.45.58,3.92a17.72,17.72,0,0,1-1.27,6,22.17,22.17,0,0,0-1.86,7.93c-.44,7.58-1,15.15-1.43,22.73-.22,3.84-.21,7.68-.32,11.52-.08,2.75-.27,5.49-.23,8.23,0,5.11.23,10.23.38,15.35a13.71,13.71,0,0,0,.27,2.72c.45,1.87,1.1,2.38,3.1,2.35a71.89,71.89,0,0,1,17.09,2.33,20.16,20.16,0,0,1,4.22,1.91c.49.23.93.81,1.39.81.84,0,2.22-.72,2.4-.45.67.94,1.42.63,2.2.62,3.1,0,6.2-.15,9.3-.08,10.06.24,20.12.59,30.18.82,4.38.11,8.82-.35,13.14.19a123.34,123.34,0,0,0,12.58.47c1.49,0,2.59-.19,2.44-2.72,1.84,2.73,4,2.4,6,1.89,2.37-.6,4.68-1.48,7-2.27,1.62-.56,3.22-1.18,5-1.83.76,1.56.06,3.27,0,4.92a50.7,50.7,0,0,1-.53,5.19c-.21,1.71-.45,3.42-.68,5.07,2.64,1.39,4.39-1.17,6.8-.9-1.9,1-3.78,2.06-5.71,3a3.18,3.18,0,0,0-2,2.36c-1.14,5.64-2.75,11.22-3.36,16.91a55.49,55.49,0,0,1-1.85,9.89c-.67,2.29-.9,2.55-3.18,2.53-1.6,0-2.52,1-3.53,1.86s-1.82,1.73-3.54.83a4.43,4.43,0,0,0-3.86.6c-2.48,1.89-5.34,1.65-8.08,2-2.23.25-4.5.46-6.69-.66-.72-.37-1.8-.09-2.71,0-3.09.15-6.19.53-9.28.45a40.55,40.55,0,0,1-7-1.08,84.82,84.82,0,0,0-15.82-1.38c-3.75-.06-7.49-.49-11.23-.75-1.2-.09-2.49-.37-2.85,2.19-.92-2.14-2-2.24-3.34-2-3.5.49-7,.86-10.54,1.25-1.08.12-2.17.16-3.52.26l.83,1.59a12.46,12.46,0,0,0-3.47.74c-.94.51-1.57,1.58-2.7,2.17l.77-1.54c-1.36-1.33-3-1-4.44-.76a33.56,33.56,0,0,1-8.73-.07,4,4,0,0,0-1.36-.09c-3.84,1.09-7.27,0-10.64-1.76a8,8,0,0,0-2.89-.77c-2.08-.2-4-.49-5.72-2-2.15-1.88-5.05-2.78-6.89-5.17-.5-.66-1.52-.92-2.43-1.43.1-2.15-.85-3.63-3.12-3.78a36.29,36.29,0,0,1-1.43-5.23,4.54,4.54,0,0,1,1-2.71c1.08-1.63,1.38-2.29.2-3.59a4.3,4.3,0,0,1-.93-3c-.55-7-1.16-14-1.64-20.94-.25-3.59-.37-7.2-.39-10.81s.18-7.12.24-10.68c0-1.08-.26-2.17-.2-3.24.11-2,.33-4,.55-6,.69-6.27,1.49-12.53,2.09-18.81.46-4.82.64-9.67,1-14.49.37-4.47.87-8.92,1.25-13.39.56-6.56,1-13.13,1.6-19.69.48-5.74,1.06-11.48,1.54-17.22.58-6.83,1.09-13.66,1.64-20.5.37-4.55.8-9.1,1.12-13.66.35-5,.55-10,.93-15,.25-3.27.87-6.53,1-9.81.24-5.3.24-10.61.32-15.91.05-3.75,0-7.51.07-11.26,0-.27,0-.55,0-.82-.28-3.8-.82-7.6-.79-11.4a82.13,82.13,0,0,0-.73-10.87c0-.38.23-.81.55-1.84.69,1.34,1.11,2.13,1.67,3.21.35-.63.76-1,.78-1.46.12-3.09.35-6.2.18-9.28a59.62,59.62,0,0,0-1.21-7.82c-.47-2.5,0-3.37,2.32-4.06a23.14,23.14,0,0,1,9.67-.76c4.34.52,8.77.25,13.16.26,1.67,0,3.3-.27,4.36-2.2,3,1.31,5.95,2.53,8.84,3.86a4.71,4.71,0,0,1,3,4.26c.22,3.46.85,6.91.83,10.36a80.92,80.92,0,0,1-1.08,9.25c-.49,4-1.06,8-1.45,12-.68,7.09-1.23,14.19-1.85,21.29a30,30,0,0,0-.35,4.09c.17,2.63.74,5.24.83,7.87q.22,7,0,14c-.08,3.28-.5,6.56-.71,9.84C964.21,348.48,964.22,349.78,962.43,349.89Zm-9.9,80.43-.82-.22c-.39,1-1.1,2.09-1.05,3.11a8,8,0,0,1-.13,2.28,17.49,17.49,0,0,0-.51,5.6,5.09,5.09,0,0,1-.42,3.6,6.64,6.64,0,0,0-.53,2.4c-.38,2.54.3,5.17-.58,7.7a11.28,11.28,0,0,0-.41,2.61c-.06.59-.23,1.37.06,1.76.59.78.22,1.53.34,2.27a10.11,10.11,0,0,1-.6,6.22.5.5,0,0,0,0,.27c.36,3,.71,6,1.09,8.93a6.39,6.39,0,0,0,.47,1.28l.82-.06C950.62,462.13,951.81,446.24,952.53,430.32ZM1056,500.51a18.15,18.15,0,0,0-2-.1,92.71,92.71,0,0,1-16.66,0c-3.36-.34-6.74-.43-10.11-.57-.7,0-1.61-.35-2.13.72,5.93,2.44,12.16,2.64,18.25,3.5a3.23,3.23,0,0,0,.82,0c2.81-.26,5.62-.62,8.44-.77C1054.27,503.12,1055.27,502.42,1056,500.51Zm11.4-3.31-5.25,1.81c-.07,2.2-.26,4.14.89,5.85.89,1.34,1.89,2.58,1.36,4.4-.1.36.51.92,1.06,1.84C1066.27,506.33,1067.48,502.22,1067.36,497.2Zm-5.51,28.23-.58-.21a8.88,8.88,0,0,0-2.31,4.87c1.92.15,2,.16,2.27-1S1061.65,526.65,1061.85,525.43Zm-131-268.77-.42-.93-1.71.75.51,1.1Zm21.85,169.82-2.51,1,1.94,1.14C952.35,428,952.48,427.49,952.74,426.48Zm2.15-54.73.51.76c.43-.32.86-.62,1.26-1a2,2,0,0,0-.37-.57C955.81,371.19,955.35,371.48,954.89,371.75Zm-2.4,52-.29-.49a2,2,0,0,0-.48.43c0,.06.13.26.21.4Z" transform="translate(-149.66 -232.44)"/><path d="M869,254.21l-2.79.54c-.07.2-.22.4-.17.52,3,7.07,4.19,14.53,4.85,22.12.55,6.46,1.2,12.92,1.78,19.38q.27,3.15.38,6.31c.06,1.53.34,2.91,1.94,3.7-1.17,2.47-.51,4.92-.26,7.33.07.6,1,1.11,1.64,1.87a3.51,3.51,0,0,0,.23,3.5,11.72,11.72,0,0,1,1.41,4.4c.61,5.09,2.93,9.71,3.86,14.72.28,1.48.35,2.67-.78,3.72,2.07,1.55,2.07,1.55.41,4.72l-1.1-.65a3.87,3.87,0,0,0-.14.79c.1,2.81-.18,5.57.39,8.43.49,2.52,1.08,5,1.57,7.57a3.86,3.86,0,0,0,1.16,2.14c1.67,1.37,1.18,2.62-.11,4,1.51,1.75,1.28,3.7,1.15,5.74-.19,3.08-1.36,6.1-.57,9.25.09.37-.38,1-.75,1.34a1.52,1.52,0,0,0-.11,2.55c1.48,1.6,2.82,3.33,4.33,4.9a2.64,2.64,0,0,0,1.73.58c3.83.14,7.67.15,11.5.32a23.52,23.52,0,0,1,4.56.71,1.92,1.92,0,0,1,1.42,2.57c-.37,1.51-.84,3-1.14,4.52-.16.84,0,1.73-.13,2.59a5.44,5.44,0,0,1-.4,1.4c-1.45,3.56-1.49,3.89-.56,6.62-2.5,1.51-2.06,4.37-2.9,6.67-.28.79-.44,1.62-.67,2.46-2.26-.54-1.43-2.39-2.25-3.7-2.67-.63-5.6-.41-8.48-.54-.73,0-1.48.16-2.2.07a6.68,6.68,0,0,0-5.9,2.14c.29,1,.58,2.11,1,3.22,1.07,3.18,2.2,6.35,3.23,9.55.34,1,.41,2.14.65,3.21.47,2.13,1,4.26,1.48,6.38a56.67,56.67,0,0,0,1.59,6.35,7.69,7.69,0,0,1,.57,4.52,5.81,5.81,0,0,0,1.34,4.87,9.16,9.16,0,0,0,2.31,1.55c-1.56,1.92-1.33,4-.72,6.45.3,1.23.15,2.52,1.15,3.56.19.2.06.69.11,1,.17,1.24.38,2.48.53,3.72.09.81.07,1.63.17,2.44a3.84,3.84,0,0,0,.42,1.48c1.15,1.83,1.18,1.81-.42,3.84,2.65.31,1.84,2.53,2.48,4-.74,1.1-3,.88-2.27,3.21l2.22-1.55c.92,2.82,1.82,5.53,1.75,8.54,0,1.08.79,2.19,1.22,3.28.63,1.59,1.67,3.11,0,4.78-.35.35,0,1.37,0,2.14l-2.8.76c.06.61-.06,1.45.19,1.58,1.42.74.92,1.87.79,3a20.21,20.21,0,0,0,.8,8.91c.94,2.73.67,5.6,1.08,8.38q1.23,8.26,2.5,16.53a7.91,7.91,0,0,0,.25,1.07c.59,2,1.2,3.91,3.86,3.74.14,0,.3.19.44.31a2.61,2.61,0,0,1,.24.52c-.44.27-.9.76-1.39.81a25.78,25.78,0,0,1-3.83.06c-3.56-.18-7.12-.38-10.67-.63-1.45-.1-2.89-.35-4.33-.55-3.07-.44-6.11-1.33-9.23-.46-1.26.36-1.94-.15-2.12-1.39-.7-4.6-1.38-9.2-2.09-13.8a46.09,46.09,0,0,0-.84-4.86c-1.87-7-2.24-14.26-3-21.44-.88-8.83-2.28-17.57-3.85-26.3-1.53-8.53-3.29-17-3.63-25.75-.1-2.51,0-5,0-7.75,1.61,1.57,1.46,3.84,2.57,5.72,1.25-.7,1.42-1.61,1.06-2.94a133.9,133.9,0,0,1-3.83-18.12c-.37-2.83-.51-5.51-2-8.09-.72-1.22-.29-3.12-.38-4.71,0-.4.16-.95,0-1.2-1.56-1.93-3.11-3.79-6.05-3.58-4.11.28-8.23.36-12.34.46-3.19.08-6.39.05-9.58.07-1.75,0-3.52,0-4.93,1.26a6.34,6.34,0,0,0-.8,1.06l2,4.63c-2,1.08-3.76,2.07-2.42,4.59L824,429.67c.06,1,.35,2.16-1,2.92-.29.17-.21,1-.36,1.91-.12.09-.86.38-1.12.9a2.65,2.65,0,0,0,.09,1.85c.87,2.37-.13,4.43-1.27,6.27-1.3,2.1-3,6.64-3,9.11a6.51,6.51,0,0,1-.73,2.19,6.71,6.71,0,0,1-.75,1.43c-1.06,1.41.5,3.31-1.24,4.83-1.06.92-1.14,3-1.64,4.5-1,3.12-2,6.25-3.06,9.37-3.33,10.26-6.78,20.47-9.34,31-1.88,7.72-4.7,15.21-6.86,22.87-2,7-3.62,14-5.38,21-.45,1.82-1.13,2.5-3,2.42-6.66-.27-13.33-.61-20-.88a13,13,0,0,0-2.71.23c-2,.36-2.06.33-2.56-1.62a9,9,0,0,0-.87-1.68.79.79,0,0,0,.1-.24q2.13-5.91,4.25-11.82a1.23,1.23,0,0,0,.09-.81c-1.13-2.37.45-4.11,1.34-6a26.22,26.22,0,0,0,1-3.06,23,23,0,0,1,.67-2.37c2.68-6,4.33-12.41,6-18.79s3.64-12.66,5.46-19c1.49-5.18,2.92-10.39,4.43-15.57,1.33-4.56,2.78-9.09,4.1-13.66,1.25-4.3,2.43-8.63,3.56-13q2.06-7.83,4-15.69c1.45-6,2.8-11.94,4.25-17.89,1.21-5,2.49-9.94,3.73-14.91a6.93,6.93,0,0,0,.32-1.89c-.24-4.83,1-9.36,2.47-13.91,1.64-4.93,2.77-10,4.12-15.05,1-3.61,1.92-7.22,2.89-10.83s2-7.2,2.94-10.82c.68-2.6,1.13-5.25,1.9-7.82s1.79-4.77,2.61-7.18c1.82-5.37,3.57-10.76,5.38-16.13a3.66,3.66,0,0,0-.2-3,10.47,10.47,0,0,1-.49-4.79,85.8,85.8,0,0,1,3.72-21q2.78-8.72,5.58-17.43a38.32,38.32,0,0,1,1.6-4.08,17,17,0,0,0,1.31-9.11c-.14-1.33.31-1.73,1.5-2.07a13.14,13.14,0,0,1,5.37-.28c3.07.37,6.19.42,9.29.53,2.33.09,4.65,1,7,0,.51-.2,1.24.15,1.87.25a38.87,38.87,0,0,0,4.25.62C867.7,251.48,868.05,251.66,869,254.21Zm-4.81,111c-.34,1.43-1.75,2.77-.42,4.51,1.94-1.42,1.3-3.38,1.8-5.61l-1.45,1.19c.38-1.72-.39-3.73,1.39-5-.46-.69-1.1-1.24-1.17-1.86s.47-1.2.8-1.91h-2.93c.3,2.93.55,5.63.89,8.31C863.14,365,863.83,365.1,864.21,365.22Zm-1.14,18.43c-.07-1.1-.05-1.72-.16-2.32-1-5.47-2.11-10.93-2.19-16.54a36.82,36.82,0,0,0-.78-6c-.65-3.62-.63-7.34-1.72-10.89-.41-1.35-.81-2.7-1.27-4.22,1.56-2.87.39-5.92-.9-8.63a10,10,0,0,1-1.31-5.7,5.94,5.94,0,0,0-1.21-4.35,3.25,3.25,0,0,1-.64-2.25,3.63,3.63,0,0,0-1.38-3.49l-1.9,2.06a9.56,9.56,0,0,1-2.23-5.35c-.23-1.86-.32-3.74-.46-5.61l-.58,0c-.32,2.25-.53,4.52-1,6.74-1.88,9.68-2.44,19.52-3.47,29.29a85.52,85.52,0,0,1-1.47,8.78c-.69,3.2-2,6.27-2.85,9.44-1.76,6.2-2.85,12.6-5.38,18.59-.09.21,0,.5,0,.9A13.45,13.45,0,0,0,838,382.7a24.25,24.25,0,0,1,11.85-2.11c2.61.27,5.16,1,7.77,1.3,1.4.14,2.69.18,3.78,1.21C861.69,383.37,862.22,383.38,863.07,383.65Zm21.61,57.5c.74-4.48-2.62-16.69-4.78-18.94-.42.91-.84,1.88-1.32,2.82-1.11,2.17-.63,3.3,1.6,4.14C881.9,433.2,882.06,437.62,884.68,441.15Zm19.61-43.73c-5.35-1.4-12.1-1.47-14.27-.11,3.31,1.93,6.92,1.13,9.82,1.38l2.94,4.58C903.4,400.86,903.84,399.14,904.29,397.42ZM883.84,414.5c-2-.95-3.91-.46-5.71.05-1.41.4-2,1.74-2,3.19,0,.21.25.45.38.67l1.64-.75.62,1.11,2.6-.68ZM863.68,256.29c.09-1.5-.33-2.24-1.6-2.28-1.62-.06-3.25-.12-4.87-.1a7.57,7.57,0,0,0-1.79.63c1.15.9,1.93,2,2.81,2.09A30.58,30.58,0,0,0,863.68,256.29Zm-38.8,131c.82.78,1.61.46,2.35-.38a14.57,14.57,0,0,1,1.6-1.8c1.57-1.31,1.77-3,1.18-5.06C828.34,382.47,826.66,384.83,824.88,387.34Zm7.28-.38c.89.35,1.15.56,1.37.52,2.85-.52,5.71-1.06,8.56-1.62a6,6,0,0,0,1.2-.52l-.16-.73A31.59,31.59,0,0,0,832.16,387Zm66.51,155.15a41.34,41.34,0,0,0,.2,4.15c.07.47.67.85,1,1.27.34-.45,1-.92,1-1.33a12.63,12.63,0,0,0-.85-3.41C899.87,542.43,899.11,542.32,898.67,542.11ZM795.38,433.67c.88-2.17,1.5-3.73,2.15-5.28a5.76,5.76,0,0,0,.34-4.78C796,426.93,796.08,430.12,795.38,433.67ZM764,547c1.36.24,2.54.84,3.8-.47-.14-.74-.3-1.58-.48-2.55A3.68,3.68,0,0,0,764,547Zm78.2-227.84c2.12-1.78,1.32-3.83,2-5.62l-2.23-.46-.72.32C844.06,315,841.84,316.9,842.24,319.19Zm41.12,72.92c-1.45-2-1.45-2-4.31-2.21.09.6,0,1.45.29,1.62C880.49,392.21,881.65,393.38,883.36,392.11Zm-52.64-94.49c2.39-3,2.94-5.52,1.83-7.87C831.9,292.53,831.31,295.08,830.72,297.62Zm67.5,207c.4-.6.86-1,.8-1.27-.33-1.91-1.17-3.73-1-5.73a5.61,5.61,0,0,0-.64-.1A8.53,8.53,0,0,0,898.22,504.66ZM862.38,348.32c-.81.85-1,1.92-.08,2.57,1.74,1.27,2.31-1.05,3.54-1.43ZM801.91,491.81c.66-1.54,1.12-2.61.78-4.1l-2.92,1.78Zm1.7-5.73c.65-1.81,1.16-3.21,1.75-4.82C803.14,481.74,802.44,483.77,803.61,486.08Zm61.52-107.66.64,0c.39-1,.78-2,1.35-3.57l-2.71.75Zm3.77-95.17c-1.36,2.4-1.29,4.35.39,6.36C869.15,287.36,869,285.29,868.9,283.25Zm-2.73,107.43c.13.2.26.41.4.61a6.9,6.9,0,0,0,1.56.1,1.07,1.07,0,0,0,.83-1.63,1.59,1.59,0,0,0-1.5-.47C866.93,389.51,866.59,390.2,866.17,390.68ZM839,251.64c-.15,1.52-.81,2.45.39,3.5l2.55-1.92Zm-7.14,161.65c-1.73-1.9-3.16-2.1-4.47-.63Zm46.82,133-.09.78,3.6.39.08-.64A3.49,3.49,0,0,0,878.68,546.3Zm19.5-131.63c.57,1.05,1.26,1.12,1.89.62s.8-1.31-.19-2.26ZM788.54,538.72c-1.69,2.15-1.69,2.15-1,4ZM882.8,395.51l.06-1H879l0,.28Zm-19.37-5.46L864,390c0-.5.25-1.11,0-1.46-.41-.72-1.08-1.21-2.12-.29Zm5.13-6-2.27,1.18c.28.31.51.81.85.9C868.18,386.41,868.28,385.59,868.56,384Zm-4.12-28.87v-2.92C863.1,353.17,863.74,354.18,864.44,355.16Zm-48.14-3.71-.7-.19a1.46,1.46,0,0,0,0,2.37C815.85,352.9,816.08,352.17,816.3,351.45Zm77,141.26c-.35-.45-.58-.93-.73-.91a3.61,3.61,0,0,0-1.09.55c.17.29.32.81.51.83C892.34,493.21,892.72,492.94,893.3,492.71Zm-67.52-101c1.93-.6,1.71-1.63,1.34-2.73ZM869,295.31c-1-1.05-1.85-.79-2.65.24Zm-2.85,163.05V455.9a1.82,1.82,0,0,0-.66,1.42C865.47,457.51,865.71,457.71,866.13,458.36Zm32.43,76c-.76,1.25-.76,1.25.26,2Zm-85-176.42c1.19-.2,1.8-.64.94-2.28ZM901,548.8c-.05-.24-.1-.48-.16-.71l-1.51.41c.05.18.09.37.14.55ZM816.17,435l-.68-.37c-.25.54-.49,1.09-.74,1.63l.49.26Zm4.54-38.78.22.64c.43-.16.87-.31,1.28-.51a3.91,3.91,0,0,0-.21-.65ZM868,291.28l.14.62,1.11-.24-.16-.68ZM819.69,431.64c.25-.45.5-.72.45-.88a1.1,1.1,0,0,0-.6-.58c-.11-.05-.54.3-.52.39A4.67,4.67,0,0,0,819.69,431.64Zm47.46,28.62a3.79,3.79,0,0,0-.57-.66c-.06,0-.4.15-.39.21a1.1,1.1,0,0,0,.23.66C866.5,460.54,866.82,460.36,867.15,460.26Zm.77-114.57-.3-.42c-.24-.06-.51-.23-.7-.16s-.29.36-.43.55a2.14,2.14,0,0,0,.69.25A2.51,2.51,0,0,0,867.92,345.69Zm-24.59,66.37v.23h1s.05-.11.07-.16Zm24.56-28.87-.11-.42-1,.26c0,.15.13.43.14.43C867.22,383.39,867.55,383.28,867.89,383.19Z" transform="translate(-149.66 -232.44)"/><path d="M513.94,356.14c-.4-3.49-.9-6.82-1.12-10.17a75.14,75.14,0,0,1,0-8.22,205.73,205.73,0,0,0-.11-22.76c-.4-5.92-1.15-11.83-.65-17.78a7.42,7.42,0,0,0-.21-1.56c-1.68-.64-2,1-3,1.53a5.81,5.81,0,0,1-4.72-6.75c.18-1.08.4-2.15.59-3.24a2.85,2.85,0,0,0-.83-3,2.8,2.8,0,0,1-.7-3.05,20.55,20.55,0,0,1,1.49-4.4,12.05,12.05,0,0,0,1.47-6.06c0-1.18.12-2.37.17-3.56.06-1.39.4-2.92-1.71-3.11a35.48,35.48,0,0,0,2.44-14.87c-.17-3.15.75-4.72,3.56-5.76,1.41-.52,3-.5,4.19-1.66.18-.17.73-.11,1,0,3.49,1.32,7,.06,10.51.17,1.81.06,3.64-.12,5.46-.15s3.46,0,5.2,0a39.11,39.11,0,0,1,14,2.06c.59.23,1.2.45,1.81.62a55.53,55.53,0,0,1,13.29,5.68c2.78,1.58,5.61,3.09,8.46,4.53a20,20,0,0,1,10,11.17c1.24,3.24,2.64,6.42,3.73,9.71.53,1.58.17,3.45,1.86,4.83l2.11-1.48c.48,1.33.9,2.48,1.38,3.82l-1.73.73c-1.8,3.08-.42,6.3.27,9.36a139.7,139.7,0,0,0,4.36,15.3,62.24,62.24,0,0,1,3.28,16.33c.21,2.91.41,5.83.42,8.75,0,2-.3,4-.48,6,.73.37,2.05.63,2.23,1.23a5.24,5.24,0,0,1-.27,3.4c-1.11,2.44-1.23,2.38,1.11,4.29a29.75,29.75,0,0,0-1.92,3.06,4.09,4.09,0,0,0-.52,2.52,3.41,3.41,0,0,1-.32,2.53,17.47,17.47,0,0,0-.89,3.71,2.39,2.39,0,0,1-2,2.25c-3,.63-4.77,3.16-7.05,4.9a1.93,1.93,0,0,0-.48,1.24c-.18,2.1-1.73,3.33-3,4.76-.77.9-1.61,1.74-2.36,2.66a2.44,2.44,0,0,0,.17,3.73c1.55-.24,2.64-2.22,4.58-1.47-.43,3.93-3.79,5-6.62,6.69a13.56,13.56,0,0,0-1.4-.46c-1.82-.43-2.36-.24-3.34,1.45a5.29,5.29,0,0,1-3.79,2.84c-1,.19-1.87,1.06-2.93,1.7-2.25-1.36-4.57-2.73-6.86-4.15a1.94,1.94,0,0,1-.84-1,2.08,2.08,0,0,0-2.51-1.6c-2.91.27-5.83.56-8.71,1-1.47.23-1.66,1.62-1.75,2.8-.16,2.19-.23,4.38-.23,6.58,0,5.39,0,10.78.13,16.17,0,1.7.52,3.39.6,5.09a30.93,30.93,0,0,1-.23,4.29,23.82,23.82,0,0,0-.35,3.22c.33,5.38.86,10.75,1.1,16.13s.22,10.55.32,15.82a3.54,3.54,0,0,0,.18,1.35c.83,1.85,1.65,3.64.76,5.78-.22.53.37,1.36.43,2.07a35.27,35.27,0,0,1-1.15,12.48,34.42,34.42,0,0,0-.56,15.62l1.68.37a43.87,43.87,0,0,1,.2,12.32c-.26,3.09-.51,6.18-.81,9.26-.06.62-.4,1.2-.5,1.81-.14,1-.17,1.91-.3,3.35l1.11-1.83c.39.6.88,1,.87,1.4-.09,3.36-.33,6.71-.41,10.07a22.31,22.31,0,0,0,.51,5.18c1.37-4.08,1.22-8.43,2.27-12.68a1.48,1.48,0,0,1,1,2.09c-1.11,2.72-.36,5.59-.89,8.37-.49,2.59-.31,5.31-.83,7.9s1.06,4.33,1.64,6.47a27.13,27.13,0,0,0,1.29,3.14l-2.42,1.44,2,.56c.31,2.12.19,1.82-1.48,2.5a10.29,10.29,0,0,1-6.58.85c-1.45-.32-2.51-.15-3.49-1.66-1.58-2.47-4.31-2.79-5.93-.45-2,2.81-4.92,2.28-7.43,3.25a.9.9,0,0,1-.79-.07c-1.69-1.86-5-1.56-5.8-4.62l-4.71,2.37.4-2.26c.3-1.68,1.12-3.5.73-5a31,31,0,0,1-.7-3.24c-.14-1-.31-2,.7-2.75a.73.73,0,0,0,.25-.47,91.93,91.93,0,0,0,.12-9.53,34.41,34.41,0,0,1-.19-6.6c.35-3.36.51-6.74.59-10.12.18-8.14.28-16.28.38-24.42.07-5.86.29-11.72.09-17.56-.27-7.32-1-14.61-1.35-21.92-.48-9.78-.79-19.57-1.18-29.35-.2-5-.47-10.06-.66-15.09-.14-3.56-.33-7.13-.26-10.69a20,20,0,0,0-1.63-7.69,2.14,2.14,0,0,0-1.64-1.08c-1.76.07-3.48.28-4.93-1a1.24,1.24,0,0,0-.78-.14c-2.79.12-5.58.26-8.37.39-1.22.06-2.48.23-2.46-1.65,0-.33-.62-.61-.79-1a5.3,5.3,0,0,1-.67-2.18c.16-3.46.59-6.91.67-10.37a75.66,75.66,0,0,0-.36-9c-.21-2.2,1.5-3.38,2.29-5,.12-.24,1.36-.12,2,.11A23.17,23.17,0,0,0,513.94,356.14Zm48.47-5.66c1.61.1,2.36-1.14,3.36-2.24-1.45-3.81.5-7.83-.14-11.91-2.87.47-.82,3.1-2.44,4.25-1.12.8-1.35,2.85-2,4.34l-.51-.12c.16-2.72.33-5.43.49-8.14l-.67-.38-.85,1.94-1.52-1L555.92,339a9.59,9.59,0,0,1,.47-2.65c1.26-2.23,3.07-4.19,3.18-7.1l.88,1.26c.69-.64,1.29-1.63,2.1-1.87,1.53-.43,1.71-1.29,1.65-2.64-.06-1.53-.26-3.26.33-4.56a8.71,8.71,0,0,0,.71-4.2c-.2-5.94-.28-11.89-.6-17.82-.27-5-.71-10-1.26-15-.41-3.71-2.37-6.11-6-7.73-5.42-2.43-7.73.4-7.57,4.85.2,5.48.35,11,.56,16.44a2.44,2.44,0,0,0,.61,1.38c1.37,1.54,1.39,1.51-.58,2.66-.12.07-.15.31-.21.47,2.09,1.34,2.48,2.7,2.14,5.24a19.25,19.25,0,0,0,0,6.2,12.24,12.24,0,0,1-.14,4.83,26.93,26.93,0,0,0-.22,4c0,.73.28,1.6,0,2.16-.83,1.57-.51,3.17-.56,4.79-.27,9.41-.69,18.81.07,28.22.19,2.34.8,3,3.18,3.2s4.94.16,7-1.55a5.3,5.3,0,0,1,1.08-.47l-1.12-.42A12.85,12.85,0,0,1,562,355a13.87,13.87,0,0,1,2.24-3l-1.71-1.63Zm-18.62-55.23c2.07.1,2.1,1.54,2.46,2.82.24.87.11,2,1.39,2.62a7.4,7.4,0,0,0,.48-1.91c-.12-3.26-.24-6.53-.52-9.78-.15-1.75-.3-1.74-2.88-1.72.84,2-2,4,.37,5.93Zm23.87-38.68c2.29,1.16,4.24,2.12,6.17,3.13s3.28,3,5.68,3.48c-.44-1.71-.73-2.42-2-3.29-3-2-5.67-4.53-9.48-5.58C567.88,255.25,567.76,255.93,567.66,256.57Zm-58.31,102.6c-1-.19-2.05-.32-3.05-.59-2.38-.62-3.22.07-2.95,2.56a13.94,13.94,0,0,0,.55,2.06c1.54.48,3.37.42,3.51-1C507.56,360.55,508.35,360.07,509.35,359.17Zm44.9,4.93c-2.09-2.24-7.25-3.28-9-1.87,1.36,1.33,3.65-.26,4.89,1.45-.54.75-1.88.91-1.29,2.17C550.85,366.22,550.85,366.22,554.25,364.1Zm13-68.54a23.58,23.58,0,0,0,.94,13.91,9.88,9.88,0,0,0-.07-6.07,15.45,15.45,0,0,1-.55-3.18C567.44,298.67,567.38,297.11,567.28,295.56Zm-53.91-8.22c-2.94-.07-4,1.67-3,5.36C512.09,291.25,513.63,289.84,513.37,287.34ZM547,407.85c1.09-4,1-8.42-.76-10.22C546.88,401,545.39,404.33,547,407.85Zm1.9,50.7a9.44,9.44,0,0,0-.16,7.25C549.66,463.43,549.24,461,548.85,458.55ZM526.74,477a6.46,6.46,0,0,0-.27,5.23C528.2,480.44,527.16,479,526.74,477Zm61.94-179.12c1.4-3.08,1.4-3.08-.34-4.29C588.56,295,587.11,296.27,588.68,297.84ZM548,439.11a3.56,3.56,0,0,0,.14-4.16A3.22,3.22,0,0,0,548,439.11ZM544.61,281c0,.12,0,.36.17.44a6.75,6.75,0,0,0,.94.45c1.83-2.69,1.83-2.69.83-3.94Zm2.65,163.36.82.1c.15-.77.59-1.64.37-2.27-.16-.43-1.24-.54-2.27-.93Zm-20.77,24.78h-.31v5.68h.31ZM567.31,316c2.85.22,2.92.14,2.32-2.16Zm-19.67,93.89h-.72v3.59h.41C547.43,412.28,547.54,411.08,547.64,409.88Zm9.68-45.23c1.84.14,1.84.14,3-1C558.79,363.35,558.79,363.35,557.32,364.65Zm36.88-52.21c.65-1.4.78-2.6-1.21-2.95Zm-46.91,160.5c1.32-1,1.57-1.78,1.21-2.89C546.71,470.31,547.13,471.39,547.29,472.94Zm-2.92-113.79c1.34.37,2.19.56,3.52-.29C546.51,358.65,545.69,357.74,544.37,359.15ZM548,430.24l.59-.22c.15-.75.19-1.46-1.25-1.92C547.59,429.05,547.77,429.64,548,430.24ZM547.72,352a4.6,4.6,0,0,0,.81-1c0-.1-.48-.61-.64-.56a3.36,3.36,0,0,0-.93.67Zm38.81-65.89c.63-1.29.63-1.29,0-2.56Zm-6.52-21h-.72l.15,1.52h.48Zm-10.47,34.35c.29-.31.61-.53.58-.65a2.87,2.87,0,0,0-.5-.81c-.21.19-.6.38-.61.58S569.3,299.12,569.54,299.49Zm-21,133.18c-.2.11-.45.19-.45.26a4,4,0,0,0,.17.74c.13-.08.37-.14.38-.23A3.13,3.13,0,0,0,548.52,432.67Zm18-140.63.64-.22-.52-1.49-.52.18C566.27,291,566.4,291.53,566.54,292Zm-4.29,71.08.1.77c.43-.13.86-.24,1.27-.41,0,0,0-.32,0-.49Zm-17.93-12c-.15.05-.36.07-.42.18s.05.28.09.43l.6-.25Zm8.41,196.28.35,0c-.05-.26-.1-.52-.17-.78a1.41,1.41,0,0,0-.21,0Q552.7,547,552.73,547.37Zm35.14-185.69.42.1v-1.55h-.23C588,360.71,587.93,361.19,587.87,361.68Zm-41.33,22.19c-.27-.24-.41-.43-.6-.5s-.39.15-.38.23a2,2,0,0,0,.21.6Z" transform="translate(-149.66 -232.44)"/><path d="M738.69,370c-.32,2.32-.64,4.64-1,7.1h1.64c.26,2.93-1.16,5-3.17,7a3.35,3.35,0,0,1,.75,3.83,11.54,11.54,0,0,0,.36,6.95c.23.74.57,1.29.07,2-.1.15-.26.36-.22.49.94,3.43-.92,6.67-.58,10.12s0,7.11,0,10.67c0,3.74,0,7.49,0,11.23,0,2.54-.26,5.08-.34,7.62a18.79,18.79,0,0,0,.11,3.52c.2,1.23.62,2.41-.35,3.51a.59.59,0,0,0-.06.53c1.17,1.73.58,3.57.46,5.41s.17,3.63.1,5.43a102.76,102.76,0,0,0,.12,13.59c.6,6.08.71,12.21,1.31,18.3.5,5.09.44,10.17.5,15.26,0,3.91.68,7.81.93,11.72.22,3.28.36,6.56.35,9.84A7.3,7.3,0,0,0,741,529a9.4,9.4,0,0,1,1.81,6.17,83.62,83.62,0,0,0,.66,8.92,7.2,7.2,0,0,0,.74,2.33c1.36,2.94.83,5.75-.65,8.41a6.73,6.73,0,0,1-2.31,2.25c-1.14.73-2.51,1.78-3.68,1.66-3.06-.31-6.43.21-9-2.24-3.87-3.76-8.56-6-13.5-8.11-6.79-2.89-13.74-2.55-20.75-2.25a6.27,6.27,0,0,1-5.28-2.31c-2.07-2.31-2.25-4.12-.58-6.69a20,20,0,0,1,2.78-3.38c2.28-2.24,4.63-4.43,7-6.54a13.67,13.67,0,0,1,2.59-1.47c.54-.3,1.09-.57,1.73-.91a16.74,16.74,0,0,0-1.67-3.25c-1.29-1.55-1-3.46-1.45-5.18a2,2,0,0,1,1.45-2.36c.74-.32,1.51-.56,2-.74a40.56,40.56,0,0,0,0-4.85,3.13,3.13,0,0,0-1.2-2.22,3.22,3.22,0,0,1-1.79-3.41,42.81,42.81,0,0,0-1-10.89,2.83,2.83,0,0,1,1.61-3.21c2.09-1,2.57-2.83,2.7-4.71.24-3.19.25-6.39.19-9.59-.14-6.39-.39-12.77-.59-19.16,0-.64,0-1.29-.11-1.92a2,2,0,0,1,1-2.32c1.23-.62,1.16-1.72,1-2.85-.34-2.9-.54-5.83-1-8.71a96.24,96.24,0,0,1-.17-27.64c.26-2.08.28-4.2.34-6.3.19-6.83.43-13.67.49-20.51,0-3-.43-6-.54-9-.09-2.65,0-5.3,0-8,0-4.37.34-8.76-.6-13.1a5.42,5.42,0,0,1,.49-2.66c.77-2.22,1.12-4.41,0-6.64a1.55,1.55,0,0,1,0-1.28c2.33-4,1.91-8.48,2.45-12.8a8.18,8.18,0,0,0-1.26-5.7c-.75-1.21-.77-2.94-.9-4.46a18.92,18.92,0,0,1,.19-3.83,4.19,4.19,0,0,0-1.51-4.26,6.67,6.67,0,0,1-1.8-6.36c.54-3.05,1.34-6.07,2.1-9.08.56-2.21,1.19-4.41,1.87-6.58.43-1.37,1-2.69,1.67-4.33a14.15,14.15,0,0,0-2.32-.41c-3.66-.06-7.32,0-11-.1-1.91-.05-3.8-.4-5.71-.53a24.88,24.88,0,0,0-3.56,0c-2.15.15-3.93.83-4,3.83-.35-1-.54-1.45-.76-2-1.75.21-2.43,1.11-2,2.73a12.13,12.13,0,0,0-5.71,5.31c-1.34,2.58-3,3-5.78,3.17-3.56.22-6.27-1.11-8.88-3.19-1.12-.91-1.53-2-1.1-3.89.49-2.13,1.06-4.25,1.36-6.41a30,30,0,0,0,0-4.64,1.48,1.48,0,0,0-.32-1c-1.82-1.33-1.36-3.09-.77-4.72a4,4,0,0,0-.25-3.41,3.83,3.83,0,0,1-.63-1.79c.21-3.16-.62-6.28.1-9.51.4-1.78,1.36-3.85,0-5.78a.89.89,0,0,1,0-.78c1.13-2,.63-4.31.95-6.45a6,6,0,0,1,3.29-4.71,8.61,8.61,0,0,1,7.29-.92,26.34,26.34,0,0,0,7.07.73c1.65,0,3.1.29,4.15,1.64a2.65,2.65,0,0,0,2.92.94c4.11-.76,8.23-1.5,12.37-2.12a36,36,0,0,1,5.2-.31c4.29,0,8.59,0,12.88.12,1.54,0,3.08.25,3.61,2.27.12.46,1.33.87,2.05.89,2,.05,4-.18,6-.18a34.71,34.71,0,0,1,4.06.33c2.53.3,5.06.7,7.59,1s5.26.43,7.88.7c3.44.36,6.88.72,10.31,1.18,5.23.7,10.52,1.18,15.66,2.32a50.54,50.54,0,0,0,17.16.64,5.2,5.2,0,0,0,2.85-1.42c3.23-3.27,5.69-2.22,8.17-.19.56.46,1.08,1,1.72,1.54-.59,1.07-.8,2.11.23,3.12a2.34,2.34,0,0,1,.37,1.54c-.07,3.19-.1,6.39-.34,9.57-.13,1.8-.75,3.56-1,5.35-.68,5.71-1.35,11.42-1.86,17.14a49,49,0,0,0,.15,6.29,7.09,7.09,0,0,1-2.25,5.68c-1.2,1.14-1.84,1.24-3.12.35-1.56-1.09-3-2.32-4.66-3.31a14.18,14.18,0,0,0-7.35-2.54c-.73-.82-1.55-1.65-2.27-2.56-3-3.84-7.31-4.94-11.84-5.51a5.29,5.29,0,0,0-2.17,0,3.2,3.2,0,0,1-3.46-.83,4.79,4.79,0,0,0-2.56-.84,17.17,17.17,0,0,0-10.57,2.17,10.71,10.71,0,0,0-5.63,9.44c0,1.23,0,2.3-1.17,3.14a2.79,2.79,0,0,0-.87,1.85c-.14,1.54-.11,3.1-.11,4.66,0,5.13,0,10.25,0,15.38,0,2.55.2,5.1.31,7.65,0,.91.12,1.82.11,2.73-.07,3.77-.94,7.45.32,11.32.85,2.63.4,5.71.39,8.6,0,1.89-.68,3.87-.33,5.67.81,4.12-.66,8.16-.11,12.24Zm55.51-116.1a1.14,1.14,0,0,0,.45-2,3.81,3.81,0,0,0-2.37-.89,3.59,3.59,0,0,0-1.88,1,9.88,9.88,0,0,1-6,2.34c-1.86,0-3.72.39-6,.64.52.67.7,1.14,1,1.3,1.86.9,3.76,1.74,5.65,2.6,1.19.54,1.83-.11,2.48-1a27.21,27.21,0,0,1,2.88-3.6C792.08,252.73,792.14,252.79,794.2,253.88Zm-85.3,290L709,543c-2.1-.48-4.18-1.09-6.31-1.38-1.78-.25-3.63,0-5.42-.17-2.29-.24-4.56-.7-7.07-1.11.11.48.07,1.17.39,1.57a4.26,4.26,0,0,0,4,1.77,35.64,35.64,0,0,1,9.23-.11C705.48,543.82,707.2,543.78,708.9,543.87Zm27.43-231.59c-.81.3-1.12.37-1.12.43,0,2.19-2.36,3.75-1.46,6.31.34,1-.17,2.24.7,3.28.26.31.17,1,.09,1.54-.39,2.38-.83,4.74-1.29,7.32,2.22-1,2.42-1.32,2-3.08a6.26,6.26,0,0,1-.32-2c.19-1.23.77-2.41.87-3.64C736.1,319.17,736.17,315.91,736.33,312.28Zm3.43-24.87c3.46-1.42,6-3.87,9.36-4.34.08,0,.12-.3.27-.68a4.51,4.51,0,0,1-3.9-1.65,1.77,1.77,0,0,0-1.69.14C742.36,282.77,740.05,284.12,739.76,287.41Zm-5.13,194c.57-3.8-.21-7.33-1-10.85-.08-.32-.73-.49-1.46-.94-.13,1.9-.61,3.5-.25,4.87A59.8,59.8,0,0,0,734.63,481.43Zm-.86,38.93c1.4.91,1.15,3.32,3.51,3.38a25.25,25.25,0,0,0-.45-8.49C735.72,517.11,734.85,518.57,733.77,520.36ZM735,503.12l.68-.26v-4.08a1.54,1.54,0,0,0-1.92-1.72,21.76,21.76,0,0,0-2.55.55Zm58.3-212.3h-.87c-.12.86-.56,1.85-.29,2.57.66,1.81.12,3.28-1.12,4.89a2,2,0,0,0,2.59-2A42.15,42.15,0,0,0,793.29,290.82ZM729.78,417.58c2.92.86,3.31.6,3.44-2.08Zm6.33-118.42-2.77.7,1.9,2.76C735.56,301.36,735.75,300.62,736.11,299.16ZM725.32,528c-.62-2.43-.62-2.43-1.84-3.11C722.87,526.43,722.87,526.43,725.32,528Zm9-117.08c-2.4.63-.94,2.31-1.46,3.88C735.18,413.82,733.28,411.91,734.33,410.91Zm44.26-131.83c-2.08-.52-2.08-.52-3.29,0C776.26,279.93,777.17,280.42,778.59,279.08ZM734,421.93c-.81-.88-1.58-1.1-2.27-.58-.3.22-.2,1-.36,2Zm.63-15.54c-1.71.25-2,.79-1.74,1.61.09.23.6.28.92.42ZM735,298.3l.76.05c.07-.69.13-1.38.22-2.44C734.49,296.74,734.39,297.45,735,298.3Zm0-10.28c-1.45,1.75-1.45,1.75-1.3,3.27.4-.81.72-1.42,1-2.05A9.9,9.9,0,0,0,734.93,288Zm-4.64,120.31c-.78-.51-1.49-.64-2,.29-.12.24.17,1,.38,1.05C729.66,409.88,730.11,409.3,730.29,408.33Zm55.37-143.75c.92-.94,1-1.61-.53-2Zm-51.92,159c-.12.86-1.08,1.4-.09,2.3C734.63,425.17,734.36,424.48,733.74,423.54Zm57.6-137.4c1.12.33,1.12.33,1.47-.62Zm-123.85,9.42.6.56,1.09-1.25-.45-.41Zm68,41.81-.43-.71c-.17.13-.47.25-.48.41s.17.43.27.65ZM784,293.21l-.06.7,1.48.15a4,4,0,0,0,0-.68C785,293.29,784.46,293.26,784,293.21Zm-64.78,16.28-.32-.65c-.21-.12-.53-.39-.59-.34a1.51,1.51,0,0,0-.51.74c0,.12.28.47.44.47A3.54,3.54,0,0,0,719.19,309.49Zm1.67-23.71c-.3-.14-.58-.38-.71-.31a.83.83,0,0,0-.39.61c0,.13.4.43.5.38S720.6,286.09,720.86,285.78Zm-62-37.18c.39-.31.66-.48.64-.52a4,4,0,0,0-.41-.6Zm62.95,271.54c-.15-.08-.39-.26-.43-.22a2,2,0,0,0-.31.51c.17,0,.35.13.5.08S721.73,520.27,721.81,520.14Zm11.26-134.63c-.21.41-.43.64-.41.85s.32.3.5.44c.08-.16.23-.32.22-.47A3.11,3.11,0,0,0,733.07,385.51Z" transform="translate(-149.66 -232.44)"/><path d="M641.14,362.37c-1.52,1.05-1.48,2.32-1.65,3.73-.52,4.45.89,8.68,1.09,13s1.08,8.51,1.66,12.76,1.14,8.32,1.77,12.47c.21,1.43.64,2.82.94,4.24a11.92,11.92,0,0,1,.54,3.19c-.19,2.72.67,5.19,1.31,7.76,1.48,5.84,2.84,11.71,4,17.61,1.08,5.26,2,10.56,2.75,15.88.46,3.52.37,7.12.56,10.68.2,3.75.47,7.49.66,11.23.1,1.91.05,3.83.16,5.74.65,10.4-.63,20.75-.57,31.14,0,6.63,1.1,13.12,1.72,19.67.26,2.79.18,5.62.27,8.44a7.94,7.94,0,0,0,.21,2.69c.53,1.33.62,2.43-.4,3.54-1.19,1.29-2.31,2.62-4.32,2.53-4.11-.19-8.22-.36-12.34-.48a24.77,24.77,0,0,0-3.09.32l.95,2c-3.24,3.72-7,4.68-11.6,3-4.11-1.52-8.33-2.73-12.5-4.08l-.79-.24c-.73-.19-1.89-.14-2.12-.58-.82-1.58-2.27-2.78-2.33-4.85-.15-5.76-.55-11.52-.87-17.27a5.71,5.71,0,0,0-.35-2.41c-2-3.46-1.78-7.26-1.68-11a73.37,73.37,0,0,1,1-8.72c.62-4.15,1.37-8.29,2-12.43.13-.79.08-1.58,1.19-1.88.43-.11.74-1,1-1.55.88-2.51,1.7-5,2.55-7.54.77-2.26.46-4.52.13-6.8-.74-5.06-1.4-10.14-2.22-15.2A37.53,37.53,0,0,1,613,439.28a5.88,5.88,0,0,0,.15-3.71c-1.68-7-3.9-13.95-4.05-21.25-.08-3.75.08-7.5.05-11.25,0-4,.13-8-.8-12a17.14,17.14,0,0,1,.14-5.43c.19-1.91.64-3.79.86-5.69a5.82,5.82,0,0,0-.68-4,3.35,3.35,0,0,1-.23-2.61c.84-2.09.14-3.75-1-5.38-.16-.23-.33-.45-.47-.68-1.13-2-.75-2.83,1.41-3.24.43-.08.87-.12,1.64-.22-.1-1.15-.13-2.2-.28-3.24a13,13,0,0,1,.38-6.74c1.93-5.1,1.45-10.47,1.49-15.75,0-4-.17-8-.45-12-.3-4.19-.93-8.36-1.19-12.55-.32-5.19-.45-10.39-.58-15.59-.12-4.66-.13-9.33-.17-14,0-1.19.12-2.38.06-3.56-.28-5.39-.73-10.77-.87-16.15a85.59,85.59,0,0,1,.37-11.77c.5-4.39,3.16-7.24,7.48-8.46a2.82,2.82,0,0,0,1.47-.67c1.12-1.49,2.49-1.32,4.13-1.12a57.54,57.54,0,0,0,6.83.17c4.23,0,8.48.25,12.4,1.79,5.19,2,9.73,7.27,9.88,13.39a53.79,53.79,0,0,1-.64,9.82,174.42,174.42,0,0,0-2,18.25c-.2,3.92-.63,7.83-1,11.74-.84,7.9-1.8,15.79-2.6,23.69-.67,6.6-1.89,13.12-2.55,19.72-.42,4.17-.45,8.38-.81,12.56a41.94,41.94,0,0,1-1,5.06C639.93,359.73,639.38,361.09,641.14,362.37Zm.75-49.13c1.61-1.42,1.87-2.47,1.1-4.3-.36,1.42-.72,2.87-1,4.34.4,1-1.11,2.11,0,3.4A2.7,2.7,0,0,0,641.89,313.24Zm-3.35,84.14,2.37.42c-.35-5-1.09-8.16-2.22-9.56-.72,2.16.07,4.2.08,6.24,0,1-.14,1.93-.22,2.9l1.29,4.55,1.53-1.27Zm9,148.4c.47.23.7.42.93.43a20.2,20.2,0,0,0,2.46-.05c2.17-.22,2.55-.44,2.75-2.61a64.78,64.78,0,0,0,.26-7.88c-.07-2.35-.47-4.7-.68-7-.41-4.73-.77-9.46-1.21-14.18-.12-1.37-.41-2.72-.63-4.08a21.42,21.42,0,0,0-1.49,4.15,5.33,5.33,0,0,0,.24,4.48,4.49,4.49,0,0,1,.27,1.83c.08.9.08,1.8.21,2.69.29,1.88.62,3.75,1,5.62.21,1.15.52,2.28.75,3.42a3.87,3.87,0,0,1,.13,1.57c-.38,1.59-.93,3.13-1.32,4.72a23.51,23.51,0,0,0-.33,2.72C648.82,542.14,648.91,544.43,647.53,545.78Zm-3-246.5c1-3.73,1.63-9.75,1.1-12.53a36.69,36.69,0,0,0-1.73,4.6,14.07,14.07,0,0,0-.16,4A36,36,0,0,0,644.48,299.28Zm-29.86-50.66c-2.34.36-2.5,2-3.1,3.25A4.52,4.52,0,0,0,611,256Zm25.89,163.56c-1.43.88-1.13,1.68-.78,2.76l2.37-.54Zm3.24-162.83a4.12,4.12,0,0,0,2.94,2.9A3.62,3.62,0,0,0,643.75,249.35Zm-1.23,158.51c-1.67-1.76-2.61-.46-3.95-.3C639.91,409.34,640.93,408.1,642.52,407.86ZM644.27,301c-1.4.78-1.68,1.63-.95,3C644.8,303.26,644.49,302.23,644.27,301ZM641,417l.27.84,1.77-.73-.2-.55Zm6.15,20c.42-.38.84-.59.85-.82a.9.9,0,0,0-.56-.71,1,1,0,0,0-.76.55C646.62,436.13,646.92,436.47,647.16,436.93Zm.79,6.53.95.25c.1-.49.2-1,.26-1.47,0,0-.63-.19-.67-.12A10.42,10.42,0,0,0,648,443.46ZM610.71,266.4c.46-.7.76-.94.76-1.19a3.23,3.23,0,0,0-.35-1l-.41.08Zm30-19.57-.38.6,1.32.71.25-.4Zm-3.86,129.36h.45v-2.05h-.45Zm4.4-51.81c-.12.23-.32.43-.32.64s.3.25.47.37a3.5,3.5,0,0,0,.2-.68C641.61,324.62,641.41,324.52,641.26,324.38Zm-.45,80.4.54-.27a2.25,2.25,0,0,0-.44-.48c-.07,0-.27.13-.42.2Z" transform="translate(-149.66 -232.44)"/><path d="M741.19,355.59h1.07c.82,4.62.44,6.59-2.11,9.15.4-3.37.75-6.27,1.09-9.16Z" transform="translate(-149.66 -232.44)"/><path d="M742.53,511.15c-.32,3.67-.64,7.35-.95,11l-.6,0c-.39-3.7.51-7.33,1-11Z" transform="translate(-149.66 -232.44)"/><path d="M556.94,518.41c-.53-3.13.24-6.09,1.15-9C558.46,512.48,557.39,515.41,556.94,518.41Z" transform="translate(-149.66 -232.44)"/><path d="M853.63,514.74l3.16,1.78c-1.16,1.55-1.84,1.79-3,1.13C852.81,517.08,852.77,516.72,853.63,514.74Z" transform="translate(-149.66 -232.44)"/><path d="M559.85,549h5.62C563.61,550.19,561.74,549.84,559.85,549Z" transform="translate(-149.66 -232.44)"/><path d="M900.46,480.39c-1.92-1.78-1.46-3.88-2.1-6C900,475.83,900.22,476.56,900.46,480.39Z" transform="translate(-149.66 -232.44)"/><path d="M859.25,514.89c1.38-.23,2.22.28,2.29,1.6,0,.27-.85.9-1.11.81C859.35,516.91,858.68,516.17,859.25,514.89Z" transform="translate(-149.66 -232.44)"/><path d="M741.24,355.58c0-1.56-1-3.24.74-5,.49,2.05.66,3.62-.77,5Z" transform="translate(-149.66 -232.44)"/><path d="M900.7,481.58c1,1.94,1,1.94-1.69,4.07.48-1,.72-1.5.92-2S900.36,482.51,900.7,481.58Z" transform="translate(-149.66 -232.44)"/><path d="M884.46,353.1c-.63.17-1,.41-1.32.31a2.13,2.13,0,0,1-1.07-.86c-.09-.17.37-.64.59-1Z" transform="translate(-149.66 -232.44)"/><path d="M571.65,549.41h-2.09l0-.35h2.09Z" transform="translate(-149.66 -232.44)"/><path d="M894.72,382.05l2.8-.45c.05.24.09.48.13.72l-2.8.46Z" transform="translate(-149.66 -232.44)"/><path d="M279.27,559.12l-3,.76c.86-1.78,1.87-1.51,2.83-1.37Z" transform="translate(-149.66 -232.44)"/><path d="M317.66,553.24l3-.8C320,553.81,318.87,553.5,317.66,553.24Z" transform="translate(-149.66 -232.44)"/><path d="M813.33,269.59c0-.59.08-1.19.17-2.31.39.69.66,1,.69,1.28a4,4,0,0,1-.22,1.16Z" transform="translate(-149.66 -232.44)"/><path d="M471.22,331.67c.36.49.7.75.68,1s-.36.51-.62.61-.55-.29-.55-.44A4.16,4.16,0,0,1,471.22,331.67Z" transform="translate(-149.66 -232.44)"/><path d="M750.13,320.39l.38-1.66.51.08c-.06.57-.11,1.15-.17,1.72Z" transform="translate(-149.66 -232.44)"/><path d="M515.73,389.27l1.25-.92.38.48-1.21,1Z" transform="translate(-149.66 -232.44)"/><path d="M463.77,286.7c-.35,0-.66.15-.78.05s-.17-.45-.24-.69c.22-.05.51-.21.64-.13S463.61,286.35,463.77,286.7Z" transform="translate(-149.66 -232.44)"/><path d="M578.06,548.86h1V549l-1,.1Z" transform="translate(-149.66 -232.44)"/><path d="M738.68,370l1.76-1.35c-.23,1.81-1.17,1.1-1.75,1.28A.56.56,0,0,1,738.68,370Z" transform="translate(-149.66 -232.44)"/><path d="M794.82,381.74l-.88,1.19-.34-.14a3.35,3.35,0,0,1,.29-1c.13-.2.46-.27.71-.4Z" transform="translate(-149.66 -232.44)"/><path class="cls-1" d="M335.92,260.72v-6.51a14.21,14.21,0,0,1,2.62,1.5c1.35,1.26,1.26,2.36-.15,3.64a20.25,20.25,0,0,1-1.7,1.36C336.57,260.8,336.34,260.72,335.92,260.72Z" transform="translate(-149.66 -232.44)"/><path class="cls-1" d="M352.64,291.84c.71,1.31,1.47,2.6,2.12,4,.41.84.25,1.71-.76,1.93s-1.16-.66-1.26-1.38c-.21-1.46-.36-2.93-.54-4.39Z" transform="translate(-149.66 -232.44)"/><path class="cls-1" d="M236.69,327.64c0-.58-.2-1.09-.06-1.19,1.29-.93,1.38-3.07,3.65-3.38C239.07,324.66,238.76,326.61,236.69,327.64Z" transform="translate(-149.66 -232.44)"/><path class="cls-1" d="M264.84,516a2.18,2.18,0,0,1-.88.15,1.29,1.29,0,0,1-.88-.94l1.78.36Z" transform="translate(-149.66 -232.44)"/><path class="cls-1" d="M169.39,329l-.66,1.31-.35-.15.51-1.35Z" transform="translate(-149.66 -232.44)"/><path class="cls-1" d="M422.6,351.64a11.33,11.33,0,0,1,0-2.41c1-4.71,2.19-9.4,3.23-14.11.35-1.6.46-3.24.71-4.86a17.43,17.43,0,0,1,.61-3.5c.58-1.58.74-3-.56-4.22,2.11-3.08,1.89-6.43,1.9-9.68a39.61,39.61,0,0,1,.89-8.66c1-4.26,1.27-8.66,1.92-13a26.23,26.23,0,0,1,.88-3.08c.15-.51.46-1.07.33-1.51-.38-1.39.42-2.22,1.17-3.32,2,3.07,0,5.84-.5,8.76h2.49c-.75,2.09-1.43,4-2.21,6.18l2.05-.68c2.88,3.53,3.23,7.89,4.2,12a136,136,0,0,1,2.67,14,75.87,75.87,0,0,1,.12,9.78c0,1.54-.19,3.11,0,4.64.36,3.44.92,6.86,1.32,10.3.18,1.58.16,3.18.24,5h-4c-.23-.41-.55-1-.84-1.51-.86-1.67-2.29-2.51-3.95-1.75-1.95.9-3.92.72-5.91.87S425.22,351.35,422.6,351.64Zm13.29-50.86c-.43-.34-.65-.6-.92-.68s-.51.36-.48.51a2.56,2.56,0,0,0,.45.82Z" transform="translate(-149.66 -232.44)"/><path class="cls-1" d="M490.45,364l2-1.73-4.29-1.7c1.67-1.29,3.37-1.09,5-1,.27,0,.77.85.71,1.24-.28,1.78-.71,3.55-1.09,5.32C491.15,365.71,491.15,365.71,490.45,364Z" transform="translate(-149.66 -232.44)"/><path class="cls-1" d="M421.9,246.78l-3.42-2.26c3.28-2.11,3.28-2.11,6-1.86C425,245.11,424.9,245.28,421.9,246.78Z" transform="translate(-149.66 -232.44)"/><path class="cls-1" d="M489.21,546.58a9.84,9.84,0,0,1,3.43,6l-3,.72C488.62,550,488.5,548.43,489.21,546.58Z" transform="translate(-149.66 -232.44)"/><path class="cls-1" d="M431.37,278.3l-2.08,2.43c-.74.85-1.71,1-2.33.34a2.18,2.18,0,0,1,0-2.73C428.35,277.1,429.77,277.36,431.37,278.3Z" transform="translate(-149.66 -232.44)"/><path class="cls-1" d="M477.6,505.07a8.93,8.93,0,0,1,1.11,2.23c.39,2.16.61,4.34.87,6.52a5.92,5.92,0,0,1-.36,1.17c-.84-3.61-1.54-6.63-2.25-9.65Z" transform="translate(-149.66 -232.44)"/><path class="cls-1" d="M427,301.41c-.84,1.64.65,4-2,4.84C424.34,303.37,424.6,302.73,427,301.41Z" transform="translate(-149.66 -232.44)"/><path class="cls-1" d="M410.52,408.92c-1.72-1.71.32-4.41-1.93-5.64.84-1,.84-1,2.35-1.28C409.56,404.23,411.85,406.49,410.52,408.92Z" transform="translate(-149.66 -232.44)"/><path class="cls-1" d="M507.06,549.73c-1.42,1.86-2.21,1.9-6.12.31C502.93,549.94,504.89,548.91,507.06,549.73Z" transform="translate(-149.66 -232.44)"/><path class="cls-1" d="M431.93,355.92c-1.52,2-3.39,1.2-5.2,1.54C428,355.52,428.84,355.26,431.93,355.92Z" transform="translate(-149.66 -232.44)"/><path class="cls-1" d="M457.08,277c.17,1.87.32,3.52.49,5.37-2.12-.15-1.49-1.8-1.77-2.67A1.93,1.93,0,0,1,457.08,277Z" transform="translate(-149.66 -232.44)"/><path class="cls-1" d="M439.42,291.8c.15,2,.29,4.07.46,6.39C438.42,296.31,438.21,294.67,439.42,291.8Z" transform="translate(-149.66 -232.44)"/><path class="cls-1" d="M476.74,503.9l-1.37-5.11c1,.42,1.78.63,1.76.79C477.05,500.81,478.44,502,476.74,503.9Z" transform="translate(-149.66 -232.44)"/><path class="cls-1" d="M454.49,271.06c1.8,1.26,1.86,1.61.68,4.12C454.17,273.87,454.32,272.53,454.49,271.06Z" transform="translate(-149.66 -232.44)"/><path class="cls-1" d="M503.46,546.61l1.5-1.41c.38.42,1,.81,1.06,1.26s-.5,1-.79,1.46Z" transform="translate(-149.66 -232.44)"/><path class="cls-1" d="M410,413.32c-1.92.31-1.92.31-3-.85C408.13,411.92,409.09,411.69,410,413.32Z" transform="translate(-149.66 -232.44)"/><path class="cls-1" d="M428.2,243.69c.6-1.11,1.36-1.68,2.66-1.25C430.3,243.68,430.3,243.68,428.2,243.69Z" transform="translate(-149.66 -232.44)"/><path class="cls-1" d="M451.44,378.33c1.31-.49,2.15-.64,2.92.57A2.17,2.17,0,0,1,451.44,378.33Z" transform="translate(-149.66 -232.44)"/><path class="cls-1" d="M424.11,357.78H421.3c1.17-1.14,2-1.11,2.79-.66Z" transform="translate(-149.66 -232.44)"/><path class="cls-1" d="M481.07,360.92l-3.07.42C478.83,359.71,479.94,360.24,481.07,360.92Z" transform="translate(-149.66 -232.44)"/><path class="cls-1" d="M414.65,378.58l-1.39.65a5.08,5.08,0,0,1-.33-.83,11.11,11.11,0,0,1,1.4-.64C414.43,378,414.54,378.31,414.65,378.58Z" transform="translate(-149.66 -232.44)"/><path class="cls-1" d="M432.38,246.84c-.48.43-.75.88-1.07.91s-.59-.42-.89-.65a3.53,3.53,0,0,1,.91-.75C431.54,246.28,431.87,246.59,432.38,246.84Z" transform="translate(-149.66 -232.44)"/><path class="cls-1" d="M398.69,348.5c-.12.64-.23,1.28-.34,1.91l-.39,0,.12-1.9Z" transform="translate(-149.66 -232.44)"/><path class="cls-1" d="M448.41,376.06l-2.56.45-.09-.69,2.6-.15Z" transform="translate(-149.66 -232.44)"/><path class="cls-1" d="M495.73,489.4c-.2-.68-.35-1.19-.57-1.91C496.38,488.18,496.38,488.18,495.73,489.4Z" transform="translate(-149.66 -232.44)"/><path class="cls-1" d="M470.57,358.2c.31.56.61.87.58,1.13s-.4.46-.62.69c-.19-.26-.51-.51-.54-.79S470.26,358.72,470.57,358.2Z" transform="translate(-149.66 -232.44)"/><path class="cls-1" d="M411.49,399.47a4.84,4.84,0,0,1-1.27.37c-.18,0-.55-.38-.52-.47a2.21,2.21,0,0,1,.59-.78A9.54,9.54,0,0,1,411.49,399.47Z" transform="translate(-149.66 -232.44)"/><path class="cls-1" d="M412.31,386.85l-1.05,1.5-.32-.23,1-1.5Z" transform="translate(-149.66 -232.44)"/><path class="cls-1" d="M381.09,546l1.29.46-.14.52-1.4-.34Z" transform="translate(-149.66 -232.44)"/><path class="cls-1" d="M428.08,288.91c.17-.44.35-.88.54-1.31a1.92,1.92,0,0,1,.42.16c-.09.47-.22.93-.35,1.39Z" transform="translate(-149.66 -232.44)"/><path class="cls-1" d="M452.5,244.14c-.69.32-.94.54-1.15.51a2.87,2.87,0,0,1-.84-.42c.15-.19.29-.52.45-.53A6.52,6.52,0,0,1,452.5,244.14Z" transform="translate(-149.66 -232.44)"/><path class="cls-1" d="M407.93,307.7l-1,.78c-.15-.21-.41-.41-.42-.62s.3-.43.49-.45S407.5,307.56,407.93,307.7Z" transform="translate(-149.66 -232.44)"/><path class="cls-1" d="M433.07,352.2a2.19,2.19,0,0,1-.73.14c-.08,0-.12-.37-.18-.57a3.71,3.71,0,0,1,.73-.08C433,351.69,433,352,433.07,352.2Z" transform="translate(-149.66 -232.44)"/><path class="cls-1" d="M475.15,484.76a7.3,7.3,0,0,1-1.06.42s-.21-.39-.31-.6l1.1-.42Z" transform="translate(-149.66 -232.44)"/><path class="cls-1" d="M408.31,284c.25.19.61.41.59.46a5,5,0,0,1-.5.73c-.17-.17-.45-.33-.48-.52S408.14,284.3,408.31,284Z" transform="translate(-149.66 -232.44)"/><path class="cls-1" d="M503.06,534.18c-.36.34-.54.64-.7.63a2.62,2.62,0,0,1-.81-.36c.15-.18.28-.49.45-.51A3.58,3.58,0,0,1,503.06,534.18Z" transform="translate(-149.66 -232.44)"/><path class="cls-1" d="M475.21,494.4a6.71,6.71,0,0,1,.34.84s-.23.16-.35.25l-.36-.95Z" transform="translate(-149.66 -232.44)"/><path class="cls-1" d="M454.7,390.24c-.22-.31-.47-.51-.48-.73s.28-.33.44-.5c.18.19.47.36.5.56S454.9,390,454.7,390.24Z" transform="translate(-149.66 -232.44)"/><path class="cls-1" d="M466.89,466.05l-.28.37a3.52,3.52,0,0,1-.31-.57s.24-.15.37-.24C466.75,465.76,466.82,465.9,466.89,466.05Z" transform="translate(-149.66 -232.44)"/><path class="cls-1" d="M460.42,411.61l-.24.56a2.58,2.58,0,0,1-.5-.49c0-.08.12-.28.19-.43Z" transform="translate(-149.66 -232.44)"/><path class="cls-1" d="M952.53,430.32c-.72,15.92-1.91,31.81-2.27,47.75l-.82.06a6.39,6.39,0,0,1-.47-1.28c-.38-3-.73-6-1.09-8.93a.5.5,0,0,1,0-.27,10.11,10.11,0,0,0,.6-6.22c-.12-.74.25-1.49-.34-2.27-.29-.39-.12-1.17-.06-1.76a11.28,11.28,0,0,1,.41-2.61c.88-2.53.2-5.16.58-7.7a6.64,6.64,0,0,1,.53-2.4,5.09,5.09,0,0,0,.42-3.6,17.49,17.49,0,0,1,.51-5.6,8,8,0,0,0,.13-2.28c0-1,.66-2.07,1.05-3.11Z" transform="translate(-149.66 -232.44)"/><path class="cls-1" d="M1056,500.51c-.69,1.91-1.69,2.61-3.37,2.7-2.82.15-5.63.51-8.44.77a3.23,3.23,0,0,1-.82,0c-6.09-.86-12.32-1.06-18.25-3.5.52-1.07,1.43-.74,2.13-.72,3.37.14,6.75.23,10.11.57a92.71,92.71,0,0,0,16.66,0A18.15,18.15,0,0,1,1056,500.51Z" transform="translate(-149.66 -232.44)"/><path class="cls-1" d="M1067.36,497.2c.12,5-1.09,9.13-1.94,13.9-.55-.92-1.16-1.48-1.06-1.84.53-1.82-.47-3.06-1.36-4.4-1.15-1.71-1-3.65-.89-5.85Z" transform="translate(-149.66 -232.44)"/><path class="cls-1" d="M1061.85,525.43c-.2,1.22-.34,2.46-.62,3.66s-.35,1.15-2.27,1a8.88,8.88,0,0,1,2.31-4.87Z" transform="translate(-149.66 -232.44)"/><path class="cls-1" d="M930.89,256.66l-1.62.92-.51-1.1,1.71-.75Z" transform="translate(-149.66 -232.44)"/><path class="cls-1" d="M952.74,426.48c-.26,1-.39,1.48-.57,2.17l-1.94-1.14Z" transform="translate(-149.66 -232.44)"/><path class="cls-1" d="M954.89,371.75c.46-.27.92-.56,1.4-.79a2,2,0,0,1,.37.57c-.4.36-.83.66-1.26,1Z" transform="translate(-149.66 -232.44)"/><path class="cls-1" d="M952.49,423.72l-.56.34c-.08-.14-.25-.34-.21-.4a2,2,0,0,1,.48-.43Z" transform="translate(-149.66 -232.44)"/><path class="cls-1" d="M863.07,383.65c-.85-.27-1.38-.28-1.66-.55-1.09-1-2.38-1.07-3.78-1.21-2.61-.26-5.16-1-7.77-1.3A24.25,24.25,0,0,0,838,382.7a13.45,13.45,0,0,1-5.78,1.44c0-.4-.12-.69,0-.9,2.53-6,3.62-12.39,5.38-18.59.89-3.17,2.16-6.24,2.85-9.44a85.52,85.52,0,0,0,1.47-8.78c1-9.77,1.59-19.61,3.47-29.29.44-2.22.65-4.49,1-6.74l.58,0c.14,1.87.23,3.75.46,5.61a9.56,9.56,0,0,0,2.23,5.35l1.9-2.06a3.63,3.63,0,0,1,1.38,3.49,3.25,3.25,0,0,0,.64,2.25,5.94,5.94,0,0,1,1.21,4.35,10,10,0,0,0,1.31,5.7c1.29,2.71,2.46,5.76.9,8.63.46,1.52.86,2.87,1.27,4.22,1.09,3.55,1.07,7.27,1.72,10.89a36.82,36.82,0,0,1,.78,6c.08,5.61,1.16,11.07,2.19,16.54C863,381.93,863,382.55,863.07,383.65Z" transform="translate(-149.66 -232.44)"/><path class="cls-1" d="M884.68,441.15c-2.62-3.53-2.78-7.95-4.5-12-2.23-.84-2.71-2-1.6-4.14.48-.94.9-1.91,1.32-2.82C882.06,424.46,885.42,436.67,884.68,441.15Z" transform="translate(-149.66 -232.44)"/><path class="cls-1" d="M904.29,397.42c-.45,1.72-.89,3.44-1.51,5.85l-2.94-4.58c-2.9-.25-6.51.55-9.82-1.38C892.19,396,898.94,396,904.29,397.42Z" transform="translate(-149.66 -232.44)"/><path class="cls-1" d="M883.84,414.5l-2.5,3.59-2.6.68-.62-1.11-1.64.75c-.13-.22-.39-.46-.38-.67.06-1.45.62-2.79,2-3.19C879.93,414,881.85,413.55,883.84,414.5Z" transform="translate(-149.66 -232.44)"/><path class="cls-1" d="M863.68,256.29a30.58,30.58,0,0,1-5.45.34c-.88-.08-1.66-1.19-2.81-2.09a7.57,7.57,0,0,1,1.79-.63c1.62,0,3.25,0,4.87.1C863.35,254.05,863.77,254.79,863.68,256.29Z" transform="translate(-149.66 -232.44)"/><path class="cls-1" d="M864.21,365.22c-.38-.12-1.07-.21-1.09-.38-.34-2.68-.59-5.38-.89-8.31h2.93c-.33.71-.87,1.35-.8,1.91s.71,1.17,1.17,1.86c-1.78,1.28-1,3.29-1.39,5Z" transform="translate(-149.66 -232.44)"/><path class="cls-1" d="M824.88,387.34c1.78-2.51,3.46-4.87,5.13-7.24.59,2.08.39,3.75-1.18,5.06a14.57,14.57,0,0,0-1.6,1.8C826.49,387.8,825.7,388.12,824.88,387.34Z" transform="translate(-149.66 -232.44)"/><path class="cls-1" d="M832.16,387a31.59,31.59,0,0,1,11-2.35l.16.73a6,6,0,0,1-1.2.52c-2.85.56-5.71,1.1-8.56,1.62C833.31,387.52,833.05,387.31,832.16,387Z" transform="translate(-149.66 -232.44)"/><path class="cls-1" d="M898.67,542.11c.44.21,1.2.32,1.34.68a12.63,12.63,0,0,1,.85,3.41c0,.41-.63.88-1,1.33-.35-.42-.95-.8-1-1.27A41.34,41.34,0,0,1,898.67,542.11Z" transform="translate(-149.66 -232.44)"/><path class="cls-1" d="M795.38,433.67c.7-3.55.66-6.74,2.49-10.06a5.76,5.76,0,0,1-.34,4.78C796.88,429.94,796.26,431.5,795.38,433.67Z" transform="translate(-149.66 -232.44)"/><path class="cls-1" d="M764,547a3.68,3.68,0,0,1,3.32-3c.18,1,.34,1.81.48,2.55C766.58,547.87,765.4,547.27,764,547Z" transform="translate(-149.66 -232.44)"/><path class="cls-1" d="M842.24,319.19c-.4-2.29,1.82-4.21-1-5.76l.72-.32,2.23.46C843.56,315.36,844.36,317.41,842.24,319.19Z" transform="translate(-149.66 -232.44)"/><path class="cls-1" d="M883.36,392.11c-1.71,1.27-2.87.1-4-.59-.3-.17-.2-1-.29-1.62C881.91,390.14,881.91,390.14,883.36,392.11Z" transform="translate(-149.66 -232.44)"/><path class="cls-1" d="M830.72,297.62c.59-2.54,1.18-5.09,1.83-7.87C833.66,292.1,833.11,294.58,830.72,297.62Z" transform="translate(-149.66 -232.44)"/><path class="cls-1" d="M898.22,504.66a8.53,8.53,0,0,1-.89-7.1,5.61,5.61,0,0,1,.64.1c-.12,2,.72,3.82,1,5.73C899.08,503.68,898.62,504.06,898.22,504.66Z" transform="translate(-149.66 -232.44)"/><path class="cls-1" d="M862.38,348.32l3.47,1.14c-1.24.38-1.81,2.7-3.55,1.43C861.4,350.24,861.57,349.17,862.38,348.32Z" transform="translate(-149.66 -232.44)"/><path class="cls-1" d="M864.14,365.31l1.45-1.19c-.5,2.23.14,4.19-1.8,5.61-1.33-1.74.08-3.08.42-4.51Z" transform="translate(-149.66 -232.44)"/><path class="cls-1" d="M801.91,491.81l-2.14-2.32,2.92-1.78C803,489.2,802.57,490.27,801.91,491.81Z" transform="translate(-149.66 -232.44)"/><path class="cls-1" d="M803.61,486.08c-1.17-2.31-.47-4.34,1.75-4.82C804.77,482.87,804.26,484.27,803.61,486.08Z" transform="translate(-149.66 -232.44)"/><path class="cls-1" d="M865.13,378.42l-.72-2.78,2.71-.75c-.57,1.52-1,2.54-1.35,3.57Z" transform="translate(-149.66 -232.44)"/><path class="cls-1" d="M868.9,283.25c.12,2,.25,4.11.39,6.36C867.61,287.6,867.54,285.65,868.9,283.25Z" transform="translate(-149.66 -232.44)"/><path class="cls-1" d="M866.17,390.68c.42-.48.76-1.17,1.29-1.39a1.59,1.59,0,0,1,1.5.47,1.07,1.07,0,0,1-.83,1.63,6.9,6.9,0,0,1-1.56-.1C866.43,391.09,866.3,390.88,866.17,390.68Z" transform="translate(-149.66 -232.44)"/><path class="cls-1" d="M839,251.64l2.94,1.58-2.55,1.92C838.19,254.09,838.85,253.16,839,251.64Z" transform="translate(-149.66 -232.44)"/><path class="cls-1" d="M831.86,413.29l-4.47-.63C828.7,411.19,830.13,411.39,831.86,413.29Z" transform="translate(-149.66 -232.44)"/><path class="cls-1" d="M878.68,546.3a3.49,3.49,0,0,1,3.59.53l-.08.64-3.6-.39Z" transform="translate(-149.66 -232.44)"/><path class="cls-1" d="M898.18,414.67l1.7-1.64c1,1,.91,1.69.19,2.26S898.75,415.72,898.18,414.67Z" transform="translate(-149.66 -232.44)"/><path class="cls-1" d="M788.54,538.72l-1,4C786.85,540.87,786.85,540.87,788.54,538.72Z" transform="translate(-149.66 -232.44)"/><path class="cls-1" d="M882.8,395.51l-3.78-.69,0-.28h3.82Z" transform="translate(-149.66 -232.44)"/><path class="cls-1" d="M863.43,390.05l-1.52-1.82c1-.92,1.71-.43,2.12.29.21.35,0,1,0,1.46Z" transform="translate(-149.66 -232.44)"/><path class="cls-1" d="M868.56,384c-.28,1.56-.38,2.38-1.42,2.08-.34-.09-.57-.59-.85-.9Z" transform="translate(-149.66 -232.44)"/><path class="cls-1" d="M864.44,355.16c-.7-1-1.34-2,0-2.92Z" transform="translate(-149.66 -232.44)"/><path class="cls-1" d="M816.3,351.45c-.22.72-.45,1.45-.67,2.18a1.46,1.46,0,0,1,0-2.37Z" transform="translate(-149.66 -232.44)"/><path class="cls-1" d="M893.3,492.71c-.58.23-1,.5-1.31.47-.19,0-.34-.54-.51-.83a3.61,3.61,0,0,1,1.09-.55C892.72,491.78,893,492.26,893.3,492.71Z" transform="translate(-149.66 -232.44)"/><path class="cls-1" d="M825.78,391.69l1.34-2.73C827.49,390.06,827.71,391.09,825.78,391.69Z" transform="translate(-149.66 -232.44)"/><path class="cls-1" d="M869,295.31l-2.65.24C867.13,294.52,868,294.26,869,295.31Z" transform="translate(-149.66 -232.44)"/><path class="cls-1" d="M866.13,458.36c-.42-.65-.66-.85-.66-1a1.82,1.82,0,0,1,.66-1.42Z" transform="translate(-149.66 -232.44)"/><path class="cls-1" d="M898.56,534.34l.26,2C897.8,535.59,897.8,535.59,898.56,534.34Z" transform="translate(-149.66 -232.44)"/><path class="cls-1" d="M813.52,357.92l.94-2.28C815.32,357.28,814.71,357.72,813.52,357.92Z" transform="translate(-149.66 -232.44)"/><path class="cls-1" d="M901,548.8l-1.53.25c0-.18-.09-.37-.14-.55l1.51-.41C900.86,548.32,900.91,548.56,901,548.8Z" transform="translate(-149.66 -232.44)"/><path class="cls-1" d="M816.17,435l-.93,1.52-.49-.26c.25-.54.49-1.09.74-1.63Z" transform="translate(-149.66 -232.44)"/><path class="cls-1" d="M820.71,396.2l1.29-.52a3.91,3.91,0,0,1,.21.65c-.41.2-.85.35-1.28.51Z" transform="translate(-149.66 -232.44)"/><path class="cls-1" d="M868,291.28l1.09-.3c.06.22.11.45.16.68l-1.11.24Z" transform="translate(-149.66 -232.44)"/><path class="cls-1" d="M819.69,431.64a4.67,4.67,0,0,1-.67-1.07c0-.09.41-.44.52-.39a1.1,1.1,0,0,1,.6.58C820.19,430.92,819.94,431.19,819.69,431.64Z" transform="translate(-149.66 -232.44)"/><path class="cls-1" d="M867.15,460.26c-.33.1-.65.28-.73.21a1.1,1.1,0,0,1-.23-.66c0-.06.33-.25.39-.21A3.79,3.79,0,0,1,867.15,460.26Z" transform="translate(-149.66 -232.44)"/><path class="cls-1" d="M867.92,345.69a2.51,2.51,0,0,1-.74.22,2.14,2.14,0,0,1-.69-.25c.14-.19.25-.49.43-.55s.46.1.7.16Z" transform="translate(-149.66 -232.44)"/><path class="cls-1" d="M843.33,412.06l1,.07c0,.05,0,.16-.07.16h-1Z" transform="translate(-149.66 -232.44)"/><path class="cls-1" d="M867.89,383.19c-.34.09-.67.2-1,.27,0,0-.09-.28-.14-.43l1-.26Z" transform="translate(-149.66 -232.44)"/><path class="cls-1" d="M562.48,350.42l1.71,1.63a13.87,13.87,0,0,0-2.24,3,12.85,12.85,0,0,0-.34,3.63l1.12.42a5.3,5.3,0,0,0-1.08.47c-2.08,1.71-4.53,1.75-7,1.55s-3-.86-3.18-3.2c-.76-9.41-.34-18.81-.07-28.22,0-1.62-.27-3.22.56-4.79.3-.56,0-1.43,0-2.16a26.93,26.93,0,0,1,.22-4,12.24,12.24,0,0,0,.14-4.83,19.25,19.25,0,0,1,0-6.2c.34-2.54-.05-3.9-2.14-5.24.06-.16.09-.4.21-.47,2-1.15,2-1.12.58-2.66a2.44,2.44,0,0,1-.61-1.38c-.21-5.48-.36-11-.56-16.44-.16-4.45,2.15-7.28,7.57-4.85,3.62,1.62,5.58,4,6,7.73.55,5,1,10,1.26,15,.32,5.93.4,11.88.6,17.82a8.71,8.71,0,0,1-.71,4.2c-.59,1.3-.39,3-.33,4.56.06,1.35-.12,2.21-1.65,2.64-.81.24-1.41,1.23-2.1,1.87l-.88-1.26c-.11,2.91-1.92,4.87-3.18,7.1a9.59,9.59,0,0,0-.47,2.65l2.23-1.74,1.52,1,.85-1.94.67.38c-.16,2.71-.33,5.42-.49,8.14l.51.12c.63-1.49.86-3.54,2-4.34,1.62-1.15-.43-3.78,2.44-4.25.64,4.08-1.31,8.1.14,11.91-1,1.1-1.75,2.34-3.36,2.24l1.58-3.43c-2.16-.07-2.16-.07-2.81,2.53Zm-6.67,8.28c2.72.76,2.72.76,4.31-1.93C558.4,357,556.82,357.05,555.81,358.7Zm6.28-31.8c1.31-.74,1.42-1.49.51-2.62C561.46,325,561.49,325.81,562.09,326.9ZM559,340.34l-.19-.57a2.41,2.41,0,0,0-.56.42c-.06.09.07.31.11.48Zm-2.49,10.13a1.68,1.68,0,0,0-.16-.39.34.34,0,0,0-.24,0,2.7,2.7,0,0,0-.07.41Z" transform="translate(-149.66 -232.44)"/><path class="cls-1" d="M543.79,295.25l1.3-2c-2.32-2,.47-3.95-.37-5.93,2.58,0,2.73,0,2.88,1.72.28,3.25.4,6.52.52,9.78a7.4,7.4,0,0,1-.48,1.91c-1.28-.63-1.15-1.75-1.39-2.62C545.89,296.79,545.86,295.35,543.79,295.25Z" transform="translate(-149.66 -232.44)"/><path class="cls-1" d="M567.66,256.57c.1-.64.22-1.32.37-2.26,3.81,1.05,6.52,3.55,9.48,5.58,1.27.87,1.56,1.58,2,3.29-2.4-.52-3.77-2.47-5.68-3.48S570,257.73,567.66,256.57Z" transform="translate(-149.66 -232.44)"/><path class="cls-1" d="M509.35,359.17c-1,.9-1.79,1.38-1.94,3-.14,1.45-2,1.51-3.51,1a13.94,13.94,0,0,1-.55-2.06c-.27-2.49.57-3.18,2.95-2.56C507.3,358.85,508.33,359,509.35,359.17Z" transform="translate(-149.66 -232.44)"/><path class="cls-1" d="M554.25,364.1c-3.4,2.12-3.4,2.12-5.44,1.75-.59-1.26.75-1.42,1.29-2.17-1.24-1.71-3.53-.12-4.89-1.45C547,360.82,552.16,361.86,554.25,364.1Z" transform="translate(-149.66 -232.44)"/><path class="cls-1" d="M567.28,295.56c.1,1.55.16,3.11.32,4.66a15.45,15.45,0,0,0,.55,3.18,9.88,9.88,0,0,1,.07,6.07A23.58,23.58,0,0,1,567.28,295.56Z" transform="translate(-149.66 -232.44)"/><path class="cls-1" d="M513.37,287.34c.26,2.5-1.28,3.91-3,5.36C509.41,289,510.43,287.27,513.37,287.34Z" transform="translate(-149.66 -232.44)"/><path class="cls-1" d="M547,407.85c-1.56-3.52-.07-6.83-.76-10.22C548,399.43,548,403.85,547,407.85Z" transform="translate(-149.66 -232.44)"/><path class="cls-1" d="M548.85,458.55c.39,2.45.81,4.88-.16,7.25A9.44,9.44,0,0,1,548.85,458.55Z" transform="translate(-149.66 -232.44)"/><path class="cls-1" d="M526.74,477c.42,2,1.46,3.48-.27,5.23A6.46,6.46,0,0,1,526.74,477Z" transform="translate(-149.66 -232.44)"/><path class="cls-1" d="M588.68,297.84c-1.57-1.57-.12-2.84-.34-4.29C590.08,294.76,590.08,294.76,588.68,297.84Z" transform="translate(-149.66 -232.44)"/><path class="cls-1" d="M548,439.11a3.22,3.22,0,0,1,.14-4.16A3.56,3.56,0,0,1,548,439.11Z" transform="translate(-149.66 -232.44)"/><path class="cls-1" d="M544.61,281l1.94-3c1,1.25,1,1.25-.83,3.94a6.75,6.75,0,0,1-.94-.45C544.66,281.39,544.65,281.15,544.61,281Z" transform="translate(-149.66 -232.44)"/><path class="cls-1" d="M547.26,444.39l-1.08-3.1c1,.39,2.11.5,2.27.93.22.63-.22,1.5-.37,2.27Z" transform="translate(-149.66 -232.44)"/><path class="cls-1" d="M526.49,469.17v5.68h-.31v-5.68Z" transform="translate(-149.66 -232.44)"/><path class="cls-1" d="M567.31,316l2.32-2.16C570.23,316.13,570.16,316.21,567.31,316Z" transform="translate(-149.66 -232.44)"/><path class="cls-1" d="M547.64,409.88c-.1,1.2-.21,2.4-.31,3.59h-.41v-3.59Z" transform="translate(-149.66 -232.44)"/><path class="cls-1" d="M557.32,364.65c1.47-1.3,1.47-1.3,3-1C559.16,364.79,559.16,364.79,557.32,364.65Z" transform="translate(-149.66 -232.44)"/><path class="cls-1" d="M594.2,312.44,593,309.49C595,309.84,594.85,311,594.2,312.44Z" transform="translate(-149.66 -232.44)"/><path class="cls-1" d="M547.29,472.94c-.16-1.55-.58-2.63,1.21-2.89C548.86,471.16,548.61,471.93,547.29,472.94Z" transform="translate(-149.66 -232.44)"/><path class="cls-1" d="M544.37,359.15c1.32-1.41,2.14-.5,3.52-.29C546.56,359.71,545.71,359.52,544.37,359.15Z" transform="translate(-149.66 -232.44)"/><path class="cls-1" d="M548,430.24c-.19-.6-.37-1.19-.66-2.14,1.44.46,1.4,1.17,1.25,1.92Z" transform="translate(-149.66 -232.44)"/><path class="cls-1" d="M547.72,352l-.76-.92a3.36,3.36,0,0,1,.93-.67c.16-.05.68.46.64.56A4.6,4.6,0,0,1,547.72,352Z" transform="translate(-149.66 -232.44)"/><path class="cls-1" d="M586.53,286.12v-2.56C587.16,284.83,587.16,284.83,586.53,286.12Z" transform="translate(-149.66 -232.44)"/><path class="cls-1" d="M580,265.14l-.09,1.51h-.48l-.15-1.52Z" transform="translate(-149.66 -232.44)"/><path class="cls-1" d="M569.54,299.49c-.24-.37-.54-.63-.53-.88s.4-.39.61-.58a2.87,2.87,0,0,1,.5.81C570.15,299,569.83,299.18,569.54,299.49Z" transform="translate(-149.66 -232.44)"/><path class="cls-1" d="M548.52,432.67a3.13,3.13,0,0,1,.1.77c0,.09-.25.15-.38.23a4,4,0,0,1-.17-.74C548.07,432.86,548.32,432.78,548.52,432.67Z" transform="translate(-149.66 -232.44)"/><path class="cls-1" d="M566.54,292c-.14-.51-.27-1-.4-1.53l.52-.18.52,1.49Z" transform="translate(-149.66 -232.44)"/><path class="cls-1" d="M562.25,363.12l1.36-.13c0,.17.06.47,0,.49-.41.17-.84.28-1.27.41Z" transform="translate(-149.66 -232.44)"/><path class="cls-1" d="M544.32,351.09l.27.36-.6.25c0-.15-.15-.34-.09-.43S544.17,351.14,544.32,351.09Z" transform="translate(-149.66 -232.44)"/><path class="cls-1" d="M552.73,547.37q0-.4,0-.81a1.41,1.41,0,0,1,.21,0c.07.26.12.52.17.78Z" transform="translate(-149.66 -232.44)"/><path class="cls-1" d="M587.87,361.68c.06-.49.13-1,.19-1.46h.23v1.55Z" transform="translate(-149.66 -232.44)"/><path class="cls-1" d="M546.54,383.87l-.77.33a2,2,0,0,1-.21-.6c0-.08.29-.27.38-.23S546.27,383.63,546.54,383.87Z" transform="translate(-149.66 -232.44)"/><path class="cls-1" d="M794.2,253.88c-2.06-1.09-2.12-1.15-3.7.42a27.21,27.21,0,0,0-2.88,3.6c-.65.9-1.29,1.55-2.48,1-1.89-.86-3.79-1.7-5.65-2.6-.33-.16-.51-.63-1-1.3,2.24-.25,4.1-.59,6-.64a9.88,9.88,0,0,0,6-2.34,3.59,3.59,0,0,1,1.88-1,3.81,3.81,0,0,1,2.37.89A1.14,1.14,0,0,1,794.2,253.88Z" transform="translate(-149.66 -232.44)"/><path class="cls-1" d="M708.9,543.87c-1.7-.09-3.42,0-5.1-.29a35.64,35.64,0,0,0-9.23.11,4.26,4.26,0,0,1-4-1.77c-.32-.4-.28-1.09-.39-1.57,2.51.41,4.78.87,7.07,1.11,1.79.19,3.64-.08,5.42.17,2.13.29,4.21.9,6.31,1.38Z" transform="translate(-149.66 -232.44)"/><path class="cls-1" d="M736.33,312.28c-.16,3.63-.23,6.89-.48,10.14-.1,1.23-.68,2.41-.87,3.64a6.26,6.26,0,0,0,.32,2c.37,1.76.17,2.12-2,3.08.46-2.58.9-4.94,1.29-7.32.08-.51.17-1.23-.09-1.54-.87-1-.36-2.32-.7-3.28-.9-2.56,1.47-4.12,1.46-6.31C735.21,312.65,735.52,312.58,736.33,312.28Z" transform="translate(-149.66 -232.44)"/><path class="cls-1" d="M739.76,287.41c.29-3.29,2.6-4.64,4-6.53a1.77,1.77,0,0,1,1.69-.14,4.51,4.51,0,0,0,3.9,1.65c-.15.38-.19.67-.27.68C745.74,283.54,743.22,286,739.76,287.41Z" transform="translate(-149.66 -232.44)"/><path class="cls-1" d="M734.63,481.43a59.8,59.8,0,0,1-2.72-6.92c-.36-1.37.12-3,.25-4.87.73.45,1.38.62,1.46.94C734.42,474.1,735.2,477.63,734.63,481.43Z" transform="translate(-149.66 -232.44)"/><path class="cls-1" d="M733.77,520.36c1.08-1.79,2-3.25,3.06-5.11a25.25,25.25,0,0,1,.45,8.49C734.92,523.68,735.17,521.27,733.77,520.36Z" transform="translate(-149.66 -232.44)"/><path class="cls-1" d="M735,503.12l-3.79-5.51a21.76,21.76,0,0,1,2.55-.55,1.54,1.54,0,0,1,1.92,1.72v4.08Z" transform="translate(-149.66 -232.44)"/><path class="cls-1" d="M793.29,290.82a42.15,42.15,0,0,1,.31,5.48,2,2,0,0,1-2.59,2c1.24-1.61,1.78-3.08,1.12-4.89-.27-.72.17-1.71.29-2.57Z" transform="translate(-149.66 -232.44)"/><path class="cls-1" d="M729.78,417.58l3.44-2.08C733.09,418.18,732.7,418.44,729.78,417.58Z" transform="translate(-149.66 -232.44)"/><path class="cls-1" d="M736.11,299.16c-.36,1.46-.55,2.2-.87,3.46l-1.9-2.76Z" transform="translate(-149.66 -232.44)"/><path class="cls-1" d="M725.32,528c-2.45-1.56-2.45-1.56-1.84-3.11C724.7,525.56,724.7,525.56,725.32,528Z" transform="translate(-149.66 -232.44)"/><path class="cls-1" d="M734.33,410.91c-1.05,1,.85,2.91-1.46,3.88C733.39,413.22,731.93,411.54,734.33,410.91Z" transform="translate(-149.66 -232.44)"/><path class="cls-1" d="M778.59,279.08c-1.42,1.34-2.33.85-3.29,0C776.51,278.56,776.51,278.56,778.59,279.08Z" transform="translate(-149.66 -232.44)"/><path class="cls-1" d="M734,421.93l-2.63,1.45c.16-1,.06-1.81.36-2C732.37,420.83,733.14,421.05,734,421.93Z" transform="translate(-149.66 -232.44)"/><path class="cls-1" d="M734.58,406.39l-.82,2c-.32-.14-.83-.19-.92-.42C732.54,407.18,732.87,406.64,734.58,406.39Z" transform="translate(-149.66 -232.44)"/><path class="cls-1" d="M735,298.3c-.58-.85-.48-1.56,1-2.39-.09,1.06-.15,1.75-.22,2.44Z" transform="translate(-149.66 -232.44)"/><path class="cls-1" d="M734.93,288a9.9,9.9,0,0,1-.31,1.22c-.27.63-.59,1.24-1,2.05C733.48,289.77,733.48,289.77,734.93,288Z" transform="translate(-149.66 -232.44)"/><path class="cls-1" d="M730.29,408.33c-.18,1-.63,1.55-1.58,1.34-.21,0-.5-.81-.38-1.05C728.8,407.69,729.51,407.82,730.29,408.33Z" transform="translate(-149.66 -232.44)"/><path class="cls-1" d="M785.66,264.58l-.53-2C786.67,263,786.58,263.64,785.66,264.58Z" transform="translate(-149.66 -232.44)"/><path class="cls-1" d="M733.74,423.54c.62.94.89,1.63-.09,2.3C732.66,424.94,733.62,424.4,733.74,423.54Z" transform="translate(-149.66 -232.44)"/><path class="cls-1" d="M791.34,286.14l1.47-.62C792.46,286.47,792.46,286.47,791.34,286.14Z" transform="translate(-149.66 -232.44)"/><path class="cls-1" d="M667.49,295.56l1.24-1.1.45.41-1.09,1.25Z" transform="translate(-149.66 -232.44)"/><path class="cls-1" d="M735.53,337.37l-.64.35c-.1-.22-.3-.45-.27-.65s.31-.28.48-.41Z" transform="translate(-149.66 -232.44)"/><path class="cls-1" d="M784,293.21c.49.05,1,.08,1.46.17a4,4,0,0,1,0,.68l-1.48-.15Z" transform="translate(-149.66 -232.44)"/><path class="cls-1" d="M719.19,309.49a3.54,3.54,0,0,1-1,.22c-.16,0-.47-.35-.44-.47a1.51,1.51,0,0,1,.51-.74c.06-.05.38.22.59.34Z" transform="translate(-149.66 -232.44)"/><path class="cls-1" d="M720.86,285.78c-.26.31-.39.59-.6.68s-.51-.25-.5-.38a.83.83,0,0,1,.39-.61C720.28,285.4,720.56,285.64,720.86,285.78Z" transform="translate(-149.66 -232.44)"/><path class="cls-1" d="M658.86,248.6l.23-1.12a4,4,0,0,1,.41.6S659.25,248.29,658.86,248.6Z" transform="translate(-149.66 -232.44)"/><path class="cls-1" d="M721.81,520.14c-.08.13-.13.34-.24.37s-.33,0-.5-.08a2,2,0,0,1,.31-.51S721.66,520.06,721.81,520.14Z" transform="translate(-149.66 -232.44)"/><path class="cls-1" d="M733.07,385.51a3.11,3.11,0,0,1,.31.82c0,.15-.14.31-.22.47-.18-.14-.49-.28-.5-.44S732.86,385.92,733.07,385.51Z" transform="translate(-149.66 -232.44)"/><path class="cls-1" d="M642.53,547.78c1.38-1.35,1.29-3.64,3.31-4.22a23.51,23.51,0,0,1,.33-2.72c.39-1.59.94-3.13,1.32-4.72a3.87,3.87,0,0,0-.13-1.57c-.23-1.14-.54-2.27-.75-3.42-.35-1.87-.68-3.74-1-5.62-.13-.89-.13-1.79-.21-2.69a4.49,4.49,0,0,0-.27-1.83,5.33,5.33,0,0,1-.24-4.48,21.42,21.42,0,0,1,1.49-4.15c.22,1.36.51,2.71.63,4.08.44,4.72.8,9.45,1.21,14.18.21,2.35.61,4.7.68,7a64.78,64.78,0,0,1-.26,7.88c-.2,2.17-.58,2.39-2.75,2.61a20.2,20.2,0,0,1-2.46.05C643.23,548.2,643,548,642.53,547.78Z" transform="translate(-149.66 -232.44)"/><path class="cls-1" d="M639.48,301.28a36,36,0,0,1-.79-3.93,14.07,14.07,0,0,1,.16-4,36.69,36.69,0,0,1,1.73-4.6C641.11,291.53,640.51,297.55,639.48,301.28Z" transform="translate(-149.66 -232.44)"/><path class="cls-1" d="M633.55,399.38c.08-1,.23-1.94.22-2.9,0-2-.8-4.08-.08-6.24,1.13,1.4,1.87,4.6,2.22,9.56l-2.37-.42Z" transform="translate(-149.66 -232.44)"/><path class="cls-1" d="M609.62,250.62,606,258a4.52,4.52,0,0,1,.49-4.08C607.12,252.65,607.28,251,609.62,250.62Z" transform="translate(-149.66 -232.44)"/><path class="cls-1" d="M635.51,414.18l1.59,2.22-2.37.54C634.38,415.86,634.08,415.06,635.51,414.18Z" transform="translate(-149.66 -232.44)"/><path class="cls-1" d="M638.75,251.35a3.62,3.62,0,0,1,2.94,2.9A4.12,4.12,0,0,1,638.75,251.35Z" transform="translate(-149.66 -232.44)"/><path class="cls-1" d="M637.52,409.86c-1.59.24-2.61,1.48-3.95-.3C634.91,409.4,635.85,408.1,637.52,409.86Z" transform="translate(-149.66 -232.44)"/><path class="cls-1" d="M633.54,399.38l2.83,3.28-1.53,1.27c-.49-1.74-.89-3.14-1.29-4.55Z" transform="translate(-149.66 -232.44)"/><path class="cls-1" d="M639.27,303c.22,1.28.53,2.31-.95,3C637.59,304.58,637.87,303.73,639.27,303Z" transform="translate(-149.66 -232.44)"/><path class="cls-1" d="M636.92,315.25c.35-1.44.71-2.89,1.07-4.31.77,1.83.51,2.88-1.1,4.3Z" transform="translate(-149.66 -232.44)"/><path class="cls-1" d="M636,419l1.84-.44.2.55-1.77.73Z" transform="translate(-149.66 -232.44)"/><path class="cls-1" d="M642.16,438.93c-.24-.46-.54-.8-.47-1a1,1,0,0,1,.76-.55.9.9,0,0,1,.56.71C643,438.34,642.58,438.55,642.16,438.93Z" transform="translate(-149.66 -232.44)"/><path class="cls-1" d="M643,445.46a10.42,10.42,0,0,1,.54-1.34c0-.07.67.1.67.12-.06.49-.16,1-.26,1.47Z" transform="translate(-149.66 -232.44)"/><path class="cls-1" d="M636.89,315.24a2.7,2.7,0,0,1,.05,3.44c-1.11-1.29.4-2.36,0-3.41A.08.08,0,0,0,636.89,315.24Z" transform="translate(-149.66 -232.44)"/><path class="cls-1" d="M605.71,268.4v-2.14l.41-.08a3.23,3.23,0,0,1,.35,1C606.47,267.46,606.17,267.7,605.71,268.4Z" transform="translate(-149.66 -232.44)"/><path class="cls-1" d="M635.72,248.83l1.19.91-.25.4-1.32-.71Z" transform="translate(-149.66 -232.44)"/><ellipse class="cls-1" cx="482.43" cy="144.72" rx="0.32" ry="1.45"/><path class="cls-1" d="M636.26,326.38c.15.14.35.24.35.33a3.5,3.5,0,0,1-.2.68c-.17-.12-.47-.25-.47-.37S636.14,326.61,636.26,326.38Z" transform="translate(-149.66 -232.44)"/><path class="cls-1" d="M635.81,406.78l-.32-.55c.15-.07.35-.24.42-.2a2.25,2.25,0,0,1,.44.48Z" transform="translate(-149.66 -232.44)"/><path d="M435.89,300.78l-.95.65a2.56,2.56,0,0,1-.45-.82c0-.15.36-.54.48-.51S435.46,300.44,435.89,300.78Z" transform="translate(-149.66 -232.44)"/><path d="M555.81,358.7c1-1.65,2.59-1.71,4.31-1.93C558.53,359.46,558.53,359.46,555.81,358.7Z" transform="translate(-149.66 -232.44)"/><path d="M562.48,350.42l-1.3-.84c.65-2.6.65-2.6,2.81-2.53l-1.58,3.43Z" transform="translate(-149.66 -232.44)"/><path d="M562.09,326.9c-.6-1.09-.63-1.88.51-2.62C563.51,325.41,563.4,326.16,562.09,326.9Z" transform="translate(-149.66 -232.44)"/><path d="M559,340.34l-.64.33c0-.17-.17-.39-.11-.48a2.41,2.41,0,0,1,.56-.42Z" transform="translate(-149.66 -232.44)"/><path d="M556.54,350.47h-.47a2.7,2.7,0,0,1,.07-.41.34.34,0,0,1,.24,0A1.68,1.68,0,0,1,556.54,350.47Z" transform="translate(-149.66 -232.44)"/></svg>